<?xml version="1.0" standalone="no"?>
<!DOCTYPE svg PUBLIC "-//W3C//DTD SVG 1.1//EN" "http://www.w3.org/Graphics/SVG/1.1/DTD/svg11.dtd" >
<svg xmlns="http://www.w3.org/2000/svg" xmlns:xlink="http://www.w3.org/1999/xlink" version="1.1">
<metadata></metadata>
<defs>
<font id="wp_domino_novelregular" horiz-adv-x="0" >
<font-face units-per-em="2048" ascent="1638" descent="-410" />
<missing-glyph horiz-adv-x="567" />
<glyph unicode="&#xe4f;&#x22;" horiz-adv-x="907" d="M115 334q0 143 100 244.5t246 101.5q141 0 243.5 -102.5t102.5 -243.5q0 -145 -101.5 -245.5t-244.5 -100.5q-145 0 -245.5 100t-100.5 246zM186 334q0 -117 79 -197t196 -80q115 0 194.5 81t79.5 196t-80 194.5t-194 79.5q-115 0 -195 -79.5t-80 -194.5zM254 1118h158 l-21 -330h-117zM258 334q0 84 59.5 143.5t143.5 59.5t143.5 -59.5t59.5 -143.5t-59.5 -144.5t-143.5 -60.5t-143.5 60.5t-59.5 144.5zM494 1118h157l-20 -330h-117z" />
<glyph unicode="LOGO&#x2e;karuda" horiz-adv-x="3168" d="M201 383q-2 10 8 27.5t22 29.5q2 4 21.5 6.5t49.5 3.5t67 0t73 -1q88 -3 199 -9q14 0 34.5 -16t39 -40t31 -48.5t12.5 -40.5q0 -100 -34 -187.5t-90 -150.5t-128 -99t-148 -36q-45 0 -73.5 10t-44.5 45q-6 14 -11 29q-4 12 -7 24.5t-1 20.5q0 8 6 21.5t13.5 26.5 t14.5 24.5t9 13.5q10 10 29 10q10 0 30.5 -11t30.5 -26q6 -8 1 -13t-5 -22q0 -16 11.5 -22t15.5 -6q68 0 122 33.5t93 85t59.5 113t20.5 118.5q0 16 -34 40.5t-77 24.5q-94 -2 -168 -2q-63 -2 -115.5 -2t-56.5 2q-14 6 -20 23zM268 518q-4 10 7.5 26.5t21.5 30.5 q10 10 64.5 11.5t115.5 -2.5q72 -4 162 -13q10 0 13 -7t7 -15q8 -23 1 -38t-21 -13q-98 -2 -174 -4q-33 0 -64.5 -1t-56.5 -1t-40 1t-17 1q-12 6 -19 24zM766 64.5q2 21.5 13.5 47t25.5 51t24 42.5q20 31 43 46t47.5 21.5t49 6.5h47.5q18 0 35.5 -11.5t29.5 -21.5q4 12 4 16 q10 27 -1 45.5t-52 18.5q-45 -2 -82 -2h-57.5t-28.5 2q-14 6 -20 24q-4 8 7 25.5t21 30.5q8 10 38 10t63 -2q37 -4 84 -8q23 0 42 -12.5t36 -33.5q10 23 19 43.5t17 36.5q8 18 17 31q4 8 11.5 10t17.5 2q23 0 34 -11t6 -26q-39 -115 -67 -206q-12 -39 -24.5 -77t-21.5 -67.5 t-16 -47.5l-6 -19q-6 -4 -22.5 -7.5t-26.5 -3.5t-25.5 17.5t-25.5 32.5q-4 10 6 40.5t27 73.5q-4 10 -12.5 19.5t-24.5 9.5q-49 4 -69.5 -8.5t-43.5 -52.5q-8 -12 -14 -30t4 -16q20 2 27 -2q10 -10 19 -18t7 -18q-4 -18 -16 -29q-6 -4 -30.5 -16.5t-41.5 -14.5 q-10 -2 -23.5 3t-27.5 11q-16 8 -33 15q-12 8 -10 29.5zM852 518q-4 10 7 26.5t22 30.5q10 10 50 11.5t87 -2.5q53 -4 119 -13q10 0 13 -7t7 -15q10 -23 2 -38t-22 -13q-72 -2 -129 -4q-49 -2 -91.5 -2t-46.5 2q-12 6 -18 24zM1202 63q-10 20 11.5 78t52.5 117q37 70 84 152 q4 8 11 9t17 1q23 0 35 -11.5t6 -25.5l-10 -25q16 16 39 31q18 10 40.5 20.5t47.5 10.5q14 0 27.5 -11.5t22.5 -25.5t15.5 -29.5t4.5 -23.5q-16 -53 -31 -97q-12 -37 -22.5 -68.5t-10.5 -37.5q-4 -18 19 -18q20 0 24 -12.5t0 -27t-12 -26.5t-12 -14q-29 -10 -58 -11 q-18 0 -34.5 5.5t-27.5 18.5t-14.5 35.5t7.5 57.5l73 168q4 6 -1 23.5t-15 17.5q-6 0 -21.5 -4t-33 -10t-31.5 -13.5t-19 -15.5q-25 -74 -47 -133q-18 -51 -34.5 -94t-18.5 -45q-14 -10 -29 -11q-10 0 -28.5 15.5t-26.5 29.5zM1628 63q-8 12 2 42t25 61q16 37 39 76 q4 8 11 9t17 1q23 0 34 -11.5t7 -25.5q-6 -18 -12 -39q-6 -16 -12 -36.5t-13 -41.5q4 -4 11 -4q6 0 21.5 1t31.5 4t32.5 11.5t22.5 24.5l29 80q-55 23 -98 43q-37 16 -70 30.5t-35 16.5q-8 4 -3 18.5t15 30.5q10 18 25 39q4 6 8 10q8 8 17 9q63 2 116 4q45 2 82 3t41 -1 q10 -4 21 -23q4 -10 -6.5 -21.5t-20.5 -23.5q-6 -10 -30.5 -12t-54.5 0t-61.5 5l-52.5 5h-12l-6 -12l203 -90q12 -12 12 -21q0 -6 -2 -10l-27 -123q-4 -14 -18 -35.5t-62 -31.5q-27 -6 -78 -6.5t-104 -0.5h-2q-10 0 -22.5 15.5t-20.5 29.5zM1726 518q-4 10 7.5 26.5 t21.5 30.5q10 10 50 11.5t87 -2.5q53 -5 121 -13q8 0 12.5 -7t8.5 -15q8 -23 -0.5 -38t-22.5 -13q-72 -2 -129 -4q-49 -2 -91 -2t-46 2q-12 6 -19 24zM1981.5 639.5q5.5 19.5 11.5 36.5q6 12 34.5 22.5t61.5 16.5q37 8 84 14q8 2 15.5 -4t11.5 -12q14 -18 12 -34.5 t-19 -21.5q-14 -4 -32 -12q-16 -6 -36 -13l-40 -14q-10 -4 -7 -13t-5 -13t-35 -2t-37 8q-6 4 -10 5t-9 9q-6 8 -0.5 27.5zM2193 -154q-4 6 4.5 34t23.5 69t35.5 91t43 101.5t44 99.5t38.5 87q-55 -10 -99.5 22.5t-44.5 85.5q0 74 41 128t101.5 89t130 52.5t125.5 17.5 q61 0 115.5 -15.5t96.5 -46t65.5 -75.5t23.5 -103q0 -78 -40 -136t-87 -83q-10 -23 -24.5 -56.5t-27 -65t-22.5 -55.5t-10 -26q4 -2 14 -8t15 -2q16 10 32.5 22.5t28.5 24.5l139 303q4 8 11.5 10.5t17.5 2.5q23 0 35 -12.5t6 -26.5q-25 -78 -47 -139q-18 -53 -33.5 -96.5 t-17.5 -47.5q-8 -12 -29 -24.5t-39 -20.5q-4 -2 -22.5 -9t-43 -14.5t-50 -12.5t-40.5 -1h-2q-8 0 -23.5 12.5t-25.5 26.5q-33 -10 -75 -24.5t-64 -10.5q-10 0 -28.5 15.5t-26.5 31.5q-10 20 11 77t52 116q37 68 84 152q4 8 12.5 9t18.5 1q23 0 34 -11.5t5 -25.5 q-25 -70 -47 -131q-20 -53 -41 -106.5t-31 -80.5q6 -4 16.5 -8t14.5 0q18 10 35.5 24.5t25.5 31.5q2 2 22.5 46t43.5 89q-8 0 -15 6q-8 6 -12 29q-2 10 -2 22q4 16 18.5 41t34.5 27q35 2 54.5 17t29.5 33.5t13.5 36t3.5 27.5q0 25 -11.5 51.5t-36 49t-63.5 37t-96 14.5 q-49 0 -98.5 -12.5t-89.5 -35t-64.5 -53t-24.5 -67.5q0 -10 4 -22.5t11.5 -21.5t20.5 -13t32 6q4 4 11 5t13 1q25 0 36 -11.5t5 -25.5q-57 -160 -104 -287q-20 -53 -40 -105t-35 -93t-25 -67l-11 -26q-8 -10 -28 -10q-10 0 -26.5 16.5t-25.5 32.5z" />
<glyph unicode=" "  horiz-adv-x="567" />
<glyph unicode="&#x09;" horiz-adv-x="567" />
<glyph unicode="&#xa0;" horiz-adv-x="567" />
<glyph unicode="!" horiz-adv-x="585" d="M162 127q0 59 41 101t100 42t100 -42t41 -101t-41 -100t-100 -41t-100 41t-41 100zM184 1389h238l-47 -992h-144z" />
<glyph unicode="&#x22;" horiz-adv-x="538" d="M76 1382h157l-18 -370h-119zM293 1382h158l-19 -370h-119z" />
<glyph unicode="#" horiz-adv-x="1773" d="M63 336l78 205h334l133 336h-368l75 204h375l121 303h205l-119 -303h270l121 303h205l-119 -303h328l-76 -204h-334l-133 -336h369l-76 -205h-375l-137 -342h-205l135 342h-270l-137 -342h-205l135 342h-330zM682 541h270l133 336h-270z" />
<glyph unicode="$" horiz-adv-x="1054" d="M80 1090q0 88 37 152.5t94 107.5t126 65.5t132 26.5v104h121v-114q88 -20 169 -73.5t122 -146.5h67v-170h-241v64q-4 57 -37 92t-80 53v-454q25 -14 47 -28.5t45 -31.5q53 -37 101 -79t85 -85t58.5 -89t21.5 -93q0 -82 -32.5 -144.5t-85 -105.5t-116 -67.5t-124.5 -32.5 v-90h-121v92q-70 8 -132.5 38t-110.5 79t-76.5 118.5t-28.5 159.5h201v-63q6 -66 49 -102.5t98 -51.5v447q-55 33 -104 67q-59 41 -111.5 84t-90.5 88t-60.5 90t-22.5 93zM279 1090q0 -57 55 -109.5t135 -106.5v394q-35 -4 -68.5 -15.5t-61.5 -34t-44 -54t-16 -74.5z M590 219q61 12 110.5 54t49.5 118q0 55 -46.5 103.5t-113.5 95.5v-371z" />
<glyph unicode="%" horiz-adv-x="1640" d="M145 1077q0 94 30 161t76 107.5t101.5 60t106.5 19.5q61 0 127.5 -27.5t113.5 -86.5q29 -27 74 -45.5t111 -18.5q72 0 125 22.5t86 53.5l39 63h204l-847 -1390h-205l678 1114q-37 -6 -80 -6q-63 0 -115 12q2 -10 2 -19.5v-19.5q0 -94 -29.5 -158.5t-75.5 -105.5 t-101.5 -59.5t-106.5 -18.5t-106.5 18.5t-101.5 59.5t-76 105.5t-30 158.5zM291 1079q0 -66 19.5 -106.5t46 -63t55.5 -30t47 -7.5t47 7.5t56.5 30t47 63.5t19.5 106q0 66 -19.5 107t-47 63.5t-56.5 30.5t-47 8t-47 -8t-55.5 -30.5t-46 -63.5t-19.5 -107zM893 332 q0 94 29.5 159.5t74.5 106.5t100.5 60.5t106.5 19.5t106.5 -19.5t101.5 -60.5t76 -106.5t30 -159.5t-30 -158.5t-76 -105.5t-101.5 -59.5t-106.5 -18.5t-105.5 18.5t-100.5 59.5t-75.5 105.5t-29.5 158.5zM1036 332q0 -66 19.5 -107t46 -62.5t55.5 -28.5t47 -7t47 7 t56.5 28.5t47 62.5t19.5 107t-19.5 106.5t-47 63t-56 31t-47.5 8.5q-18 0 -47 -8.5t-55.5 -31t-46 -63.5t-19.5 -106z" />
<glyph unicode="&#x26;" horiz-adv-x="1478" d="M121 424q0 70 22.5 132t59.5 116.5t86 102.5t102 93q-66 111 -106.5 215.5t-40.5 196.5q0 66 24.5 128t72.5 111.5t121 79t169 29.5q68 0 119 -13t90 -36t66.5 -51.5t45.5 -57.5q43 -68 56 -155q0 -76 -30 -142.5t-79 -125t-111.5 -111.5t-125.5 -105q82 -115 178 -227 t190 -217q2 10 3 18.5t1 18.5v182h305v-172h-116v-26q0 -45 -13.5 -88.5t-35.5 -83.5q51 -53 94 -96.5t75 -73.5q37 -37 68 -66h-266q-12 10 -29 25q-14 12 -33.5 30.5t-42.5 40.5q-74 -51 -170 -80.5t-208 -29.5q-119 0 -218.5 33.5t-171 93t-111.5 139.5t-40 172zM326 424 q0 -47 22.5 -94t65.5 -86t105.5 -62.5t142.5 -23.5q74 0 138 17.5t111 47.5q-94 98 -203.5 221t-207.5 258q-76 -66 -125 -133t-49 -145zM451 1280q0 -59 27.5 -131t74.5 -154q102 78 176 157t78 171q0 12 -6 34.5t-24.5 45t-53.5 39t-92 16.5q-51 0 -85 -15.5t-55.5 -41 t-30.5 -57t-9 -64.5z" />
<glyph unicode="'" horiz-adv-x="245" d="M76 1382h157l-18 -370h-119z" />
<glyph unicode="(" horiz-adv-x="751" d="M156 700q0 166 33.5 300.5t85 237.5t115 180t122.5 129t107.5 82t70.5 42v-67q-31 -33 -88 -110t-112.5 -192.5t-97.5 -267t-42 -334.5q0 -188 43 -341.5t100.5 -270.5t114 -191.5t82.5 -103.5v-65q-16 8 -61 34.5t-104.5 76.5t-125 126t-119 181.5t-89 242.5t-35.5 311z " />
<glyph unicode=")" horiz-adv-x="739" d="M68 -203q31 33 88 110t112.5 192.5t97.5 267t42 333.5q0 186 -43 341t-100.5 272t-114 191.5t-82.5 103.5v65q14 -8 60 -34.5t105.5 -77t124 -126t119.5 -181t90 -244t35 -310.5q0 -166 -33.5 -300t-85 -237.5t-115 -180t-123 -129t-107.5 -83t-70 -40.5v67z" />
<glyph unicode="*" horiz-adv-x="841" d="M61 1053v123l287 -21l-176 225l111 62l137 -244l135 244l109 -62l-175 -225l287 21v-123l-287 24l175 -252l-95 -61l-151 264l-150 -264l-96 61l176 252z" />
<glyph unicode="+" horiz-adv-x="1064" d="M113 575v205h323v324h205v-324h326v-205h-326v-323h-205v323h-323z" />
<glyph unicode="," horiz-adv-x="331" d="M61 -123q25 25 43 49q16 23 25.5 49.5t3.5 55.5q0 4 -2 4q-53 37 -53 102q0 51 36 87t87 36q39 0 68.5 -20.5t43.5 -53.5q18 -41 19 -92q0 -88 -36 -143t-77 -88q-49 -37 -110 -58z" />
<glyph unicode="-" horiz-adv-x="749" d="M82 477v199h586v-199h-586z" />
<glyph unicode="." horiz-adv-x="399" d="M82 109q0 51 36 86.5t87 35.5t87 -35.5t36 -86.5t-36 -87t-87 -36t-87 35.5t-36 87.5z" />
<glyph unicode="/" horiz-adv-x="1239" d="M152 -66l739 1391h207l-742 -1391h-204z" />
<glyph unicode="0" horiz-adv-x="1148" d="M94 649q0 141 28 264t86 214.5t148 143.5t215 52q123 0 214.5 -52t151.5 -143.5t89 -214.5t29 -264q0 -139 -30 -262t-90.5 -214t-150.5 -143.5t-213 -52.5q-127 0 -218 52.5t-148.5 143.5t-84 214t-26.5 262zM299 649q0 -131 22.5 -225t60.5 -154.5t87 -89t102 -28.5 t103.5 28.5t88.5 90t61.5 155.5t23.5 223q0 131 -21.5 224.5t-59.5 153.5t-88 89t-108 29q-59 0 -108 -29t-86 -88t-57.5 -153.5t-20.5 -225.5z" />
<glyph unicode="1" horiz-adv-x="839" d="M109 0v172h208v963h-188v170h393v-1133h223v-172h-636z" />
<glyph unicode="2" horiz-adv-x="1169" d="M127 922v170h68q25 57 69.5 101t98 71.5t110.5 42t109 14.5q63 0 134.5 -20.5t133 -66.5t102.5 -119t41 -177t-51 -206.5t-122.5 -197t-151.5 -178.5t-138 -151h521v-205h-854v143q168 150 299 293q55 61 109 128t97 132.5t69 127t26 114.5q0 59 -19.5 99t-51.5 64.5 t-70 35t-74 10.5q-35 0 -72 -9.5t-67.5 -30t-51 -50t-24.5 -72.5v-63h-240z" />
<glyph unicode="3" horiz-adv-x="1167" d="M111 907v172h67q25 57 75 101.5t109.5 72t121 42t112.5 14.5q74 0 152.5 -23.5t143 -70t106.5 -115t42 -160.5q0 -45 -16 -89t-44 -83t-65.5 -71t-80.5 -52q39 -23 76.5 -54.5t66.5 -70.5t46 -83t17 -89q0 -92 -39.5 -161.5t-102 -115.5t-142.5 -68.5t-160 -22.5 q-92 0 -175 31.5t-145.5 87t-100.5 128t-38 154.5h215v-64q4 -43 30 -73.5t61.5 -50t76.5 -28.5t76 -9q43 0 87 12t80 36.5t57.5 60.5t21.5 83q0 49 -18.5 88t-51.5 66.5t-75 42t-89 14.5h-182v170h182q39 0 81 13.5t76 40t55.5 65.5t21.5 92q0 51 -22.5 89t-58.5 60.5 t-79 34t-86 11.5q-35 0 -76 -9.5t-76.5 -30t-61.5 -50t-30 -72.5v-66h-241z" />
<glyph unicode="4" horiz-adv-x="1128" d="M74 264v193l469 850h325v-838h179v-205h-179v-262h-204v262h-590zM299 469h365v678z" />
<glyph unicode="5" horiz-adv-x="1136" d="M115 145l98 129q39 -35 92 -59q43 -23 103.5 -41t132.5 -18q53 0 103 15t88 48t60.5 83t22.5 118q0 137 -63.5 203.5t-180.5 66.5q-53 0 -96 -8t-72 -18q-37 -10 -61 -25l-203 51l76 619h735v-183h-561l-45 -305q57 23 116.5 35t110.5 12q82 0 163 -25.5t144.5 -79.5 t102.5 -139t39 -204t-43 -202t-111.5 -135t-154.5 -75.5t-170 -23.5q-147 0 -252 49t-174 112z" />
<glyph unicode="6" horiz-adv-x="1210" d="M129 637q0 190 52 320t138.5 212t198 118t227.5 36q49 0 86 -9t64 -20q29 -12 51 -28l-67 -140q-18 6 -41 13q-18 4 -43 8t-50 4q-31 0 -71.5 -6t-86.5 -23.5t-91 -49.5t-80 -81t-57.5 -118.5t-22.5 -163.5q33 41 76 75q37 29 91 53.5t126 24.5q86 0 167 -28.5t143 -85 t100 -140.5t38 -194q0 -92 -36.5 -172t-98 -138.5t-142.5 -91t-171 -32.5q-115 0 -207 44t-157.5 129t-100.5 206.5t-35 277.5zM352 479q0 -76 22.5 -136t61.5 -102t87.5 -64.5t101.5 -22.5q45 0 89 18t79.5 52t57 82t21.5 108q0 37 -12 83t-40.5 88t-75 70.5t-115.5 28.5 q-74 0 -126 -24.5t-86 -58.5t-49.5 -68.5t-15.5 -53.5z" />
<glyph unicode="7" horiz-adv-x="1142" d="M86 4l700 1124h-657v181h891v-207l-680 -1098h-254z" />
<glyph unicode="8" horiz-adv-x="1210" d="M127 395q0 109 48 189t134 127q-66 41 -108.5 102t-42.5 148q0 86 41 152.5t105.5 111.5t144 67.5t157.5 22.5t158 -23.5t145.5 -67.5t106.5 -110.5t41 -152.5t-46 -147.5t-116 -102.5q88 -47 140 -127t52 -189q0 -92 -35.5 -167.5t-99 -130t-152.5 -84t-194 -29.5 q-104 0 -192 29.5t-151.5 84t-99.5 130t-36 167.5zM332 395q0 -68 26.5 -112.5t66.5 -72.5t88 -40t93 -12t93.5 12t88 40t66.5 74t27 111q0 66 -26 111t-65.5 72.5t-90 39t-99.5 11.5t-96 -11.5t-86 -39t-62.5 -71.5t-23.5 -112zM362 961q0 -55 27 -89t63.5 -53.5t77.5 -27 t70 -7.5t71 7.5t82 26t68.5 53t28.5 90.5q0 55 -25.5 89.5t-62.5 55t-79 28t-77 7.5t-77 -8.5t-78.5 -28t-62.5 -54t-26 -89.5z" />
<glyph unicode="9" horiz-adv-x="1208" d="M119 899q0 92 37 171t98 137.5t143 91t172 32.5q113 0 205 -44t157.5 -129t100.5 -207t35 -277q0 -190 -52 -320.5t-138 -212.5t-197 -117.5t-227 -35.5q-49 0 -87 9t-65 19q-31 12 -51 29l67 139q20 -6 43 -12q41 -10 93 -10q43 0 112.5 15.5t135 62.5t112.5 134t47 228 q-33 -43 -76 -76q-37 -29 -92 -52t-125 -23q-86 0 -167 28.5t-143 85t-100 140t-38 194.5zM324 899q0 -37 12 -84t41 -89t75 -70.5t115 -28.5q74 0 126 24.5t86 58t49.5 68.5t15.5 53q0 76 -22.5 136.5t-61.5 102.5t-88.5 64.5t-100.5 22.5q-45 0 -89 -18.5t-79.5 -52 t-57 -81t-21.5 -106.5z" />
<glyph unicode=":" horiz-adv-x="430" d="M82 109q0 51 36 86.5t87 35.5t87 -35.5t36 -86.5t-36 -87t-87 -36t-87 35.5t-36 87.5zM82 752q0 51 36 86.5t87 35.5t87 -35.5t36 -86.5t-36 -87t-87 -36t-87 35.5t-36 87.5z" />
<glyph unicode=";" horiz-adv-x="407" d="M55 -123l47 -72q61 20 111 58q41 33 77 88t36 143q-1 51 -19 92q-14 33 -44 53.5t-68 20.5q-51 0 -87 -36t-36 -87q0 -66 53 -102q2 0 2 -4q6 -29 -3 -55.5t-26 -49.5q-18 -25 -43 -49zM82 750q0 51 36 86.5t87 35.5t87 -35.5t36 -86.5t-36 -87t-87 -36t-87 35.5 t-36 87.5z" />
<glyph unicode="&#x3c;" horiz-adv-x="1032" d="M113 455v241l809 406v-213l-592 -314l592 -311v-213z" />
<glyph unicode="=" horiz-adv-x="1038" d="M113 334v207h813v-207h-813zM113 825v207h813v-207h-813z" />
<glyph unicode="&#x3e;" horiz-adv-x="1036" d="M113 43v213l592 311l-592 314v213l811 -406v-242z" />
<glyph unicode="?" horiz-adv-x="1024" d="M123 1051v63q0 147 100.5 220t288.5 73t288.5 -83t100.5 -210v-98q0 -78 -49 -149.5t-109.5 -136t-109.5 -123t-49 -107.5v-164h-205v172q0 61 23.5 108.5t59.5 89.5t77 78.5t76.5 74.5t59 80t23.5 93v82q0 16 -9 38t-31.5 40t-58.5 30.5t-87 12.5q-53 0 -87 -10.5 t-54.5 -27.5t-29.5 -38.5t-11 -44.5v-63h-207zM336 119q0 59 42 101t101 42t100.5 -42t41.5 -101t-41 -100.5t-101 -41.5q-59 0 -101 41t-42 101z" />
<glyph unicode="@" horiz-adv-x="1959" d="M166 489q0 172 65.5 323t177 263.5t263 178t323.5 65.5t322.5 -65.5t263.5 -178t178.5 -263t65.5 -323.5q0 -20 -2 -53t-10.5 -75t-24.5 -87t-43 -90q-53 -90 -144.5 -136t-197.5 -46l-242 -2l-31 70q-45 -31 -97 -54.5t-111 -23.5h-45q-53 0 -109.5 18.5t-103 55t-77 92 t-30.5 127.5v8q0 86 27.5 145.5t77 94t115 50t141.5 15.5h215v96q0 33 -13 60q-10 23 -34.5 41t-69.5 18h-139q-41 0 -78 -7t-72 -40l-98 129q49 47 116.5 68.5t131.5 21.5h139q55 0 111.5 -14.5t102.5 -48t75.5 -90t29.5 -138.5v-522h68q80 0 132 34t83 83t42 103t11 97 q0 143 -52 268.5t-143.5 219.5t-214 148.5t-266.5 54.5q-143 0 -269 -54.5t-220 -148.5t-148.5 -219t-54.5 -269q0 -143 54.5 -269t148.5 -220t220 -148.5t269 -54.5q158 0 305 72l62 -123q-172 -86 -367 -86q-172 0 -323.5 65.5t-263 178t-177 263t-65.5 322.5zM762 285 q6 -45 41 -82t100 -37q78 0 124 19.5t69.5 46t30 54t6.5 44.5v92h-230q-55 0 -98 -30t-43 -99v-8z" />
<glyph unicode="A" horiz-adv-x="1341" d="M39 0l559 1384h147l564 -1384h-222l-167 412h-498l-166 -412h-217zM492 582h360l-168 411l-12 99l-13 -99z" />
<glyph unicode="B" horiz-adv-x="1124" d="M82 1237l65 127h418q80 0 151.5 -28.5t124 -78t83 -117t30.5 -145.5t-31.5 -146.5t-84.5 -119.5q78 -43 135 -125t57 -215q0 -127 -55 -206t-138 -125t-178.5 -62t-175.5 -16q-78 0 -146.5 4t-117.5 10q-59 8 -106 16v1125q-2 20 -7 41q-4 16 -9 33.5t-15 27.5zM297 1192 q4 -16 10 -35q4 -16 7 -37.5t3 -46.5v-274h263q72 4 123 58t51 138q0 88 -55.5 142.5t-133.5 54.5h-268zM317 168q25 -4 52 -8q23 -4 52 -6t62 -2t90.5 6t113.5 29.5t97 70.5t41 131q0 80 -27.5 127t-66.5 70.5t-79 31t-64 7.5h-271v-457z" />
<glyph unicode="C" horiz-adv-x="1208" d="M104 672q0 190 58.5 323t149.5 217t202 123t215 39q94 0 198.5 -33.5t192.5 -101.5l-90 -170q-37 39 -79 64.5t-83 41t-76.5 21.5t-62.5 6q-47 0 -118.5 -20.5t-139.5 -77.5t-116 -161.5t-48 -270.5t49.5 -267.5t118 -156.5t141 -73.5t119.5 -18.5q27 0 64 6t78 20.5 t84 40t79 66.5l90 -170q-90 -72 -193 -104.5t-202 -32.5q-104 0 -215.5 36.5t-204 118.5t-152 213t-59.5 322z" />
<glyph unicode="D" horiz-adv-x="1249" d="M82 1257l65 127h418q80 0 181.5 -35.5t189.5 -115.5t148.5 -210t60.5 -321q0 -190 -61.5 -323t-150.5 -217t-189.5 -123t-178.5 -39h-452v1155q-2 20 -7 41q-4 16 -9 33.5t-15 27.5zM297 1212q4 -16 10 -34q4 -16 7 -38t3 -46v-922h201q20 0 60 8t87.5 30.5t96.5 60.5 t88 96.5t64.5 141.5t25.5 193q0 166 -51 267.5t-121 155t-140.5 70.5t-109.5 17h-221z" />
<glyph unicode="E" horiz-adv-x="1030" d="M82 1255l65 127h756v-172h-606q4 -16 10 -34q4 -16 7 -38t3 -46v-263h498v-172h-498v-483h586v-174h-790v1153q-2 20 -7 41q-4 16 -9 33.5t-15 27.5z" />
<glyph unicode="F" horiz-adv-x="1001" d="M82 1257l65 127h756v-172h-606q4 -16 10 -34q4 -16 7 -38t3 -46v-263h498v-172h-498v-657h-204v1153q-2 20 -7 41q-4 16 -9 33.5t-15 27.5z" />
<glyph unicode="G" horiz-adv-x="1306" d="M106 686q0 190 59.5 322.5t152 215.5t204 120.5t215.5 37.5q94 0 195.5 -30.5t189.5 -98.5l-90 -170q-37 37 -78 61.5t-80.5 39t-74.5 20.5t-62 6q-31 0 -75 -8t-91 -29.5t-94 -58.5t-84 -95t-59.5 -140t-22.5 -193t22.5 -193.5t59.5 -141t84 -95.5t94 -58.5t91.5 -29.5 t74.5 -8q37 0 76 14t72 41t55.5 64.5t28.5 87.5v159h-187v174h357l67 -127q-10 -10 -16 -27.5t-10 -33.5q-4 -20 -6 -41v-473h-134l-49 141q-33 -55 -94 -103t-160 -48q-104 0 -215.5 37.5t-204 121.5t-152 216.5t-59.5 322.5z" />
<glyph unicode="H" horiz-adv-x="1214" d="M113 2v1382h204v-553h580v553h272v-172h-67v-1210h-205v657h-580v-657h-204z" />
<glyph unicode="I" horiz-adv-x="448" d="M121 0v1382h270v-172h-65v-1210h-205z" />
<glyph unicode="J" horiz-adv-x="741" d="M43 61l100 162q12 -18 33 -33q16 -12 44 -22t69 -10q53 0 94 32.5t41 83.5v1106h270v-170h-65v-936q0 -72 -30 -126t-76 -91t-104.5 -55t-113.5 -18q-88 0 -153.5 24.5t-108.5 52.5z" />
<glyph unicode="K" horiz-adv-x="1130" d="M115 0v1378h204v-544h9q14 0 27.5 4t23.5 18l489 522h222l-570 -630l570 -748h-222l-489 635q-10 12 -20.5 18t-30.5 6h-9v-659h-204z" />
<glyph unicode="L" horiz-adv-x="991" d="M47 1210v172h66h206v-1208h584v-174h-790v1210h-66z" />
<glyph unicode="M" horiz-adv-x="1476" d="M113 0v1382h206v-2v2l373 -919l47 -180l45 174l375 925h205v-1382h-205v946l-63 -239l-236 -562h-242l-237 568l-62 233v-946h-206z" />
<glyph unicode="N" horiz-adv-x="1218" d="M115 0v1382h204h3v-2l538 -907l39 -143v1052h272v-172h-65v-1210h-205v2l-547 920l-35 112v-1034h-204z" />
<glyph unicode="O" horiz-adv-x="1439" d="M88 674q0 190 59.5 323t151.5 217t204 122t216 38t216 -38t204 -122t152.5 -217t60.5 -323t-60.5 -321.5t-154 -214.5t-205 -119.5t-213.5 -36.5q-104 0 -216 36.5t-204 119.5t-151.5 214t-59.5 322zM293 674q0 -111 22.5 -193t59.5 -140t84 -94t94 -57.5t91 -28.5t75 -7 q45 0 118.5 18t142.5 74.5t119 159t50 268.5t-49 269.5t-119 160.5t-142.5 77.5t-119.5 20.5t-120 -20.5t-140.5 -77.5t-116.5 -160.5t-49 -269.5z" />
<glyph unicode="P" horiz-adv-x="1085" d="M82 1257l65 127h418q80 0 159 -29.5t141.5 -85t101.5 -135t39 -180.5q0 -100 -39 -180t-101.5 -136t-141.5 -86t-159 -30h-246v-522h-206v1155q-2 20 -7 41q-4 16 -9 33.5t-15 27.5zM297 1212q4 -16 10 -34q4 -16 7 -38t3 -46v-398l232 -2q10 0 18 2q8 0 17.5 1t19.5 3 q88 20 145.5 90t57.5 164q0 96 -61.5 167t-153.5 87q-10 2 -19.5 3t-15.5 1h-14h-246z" />
<glyph unicode="Q" horiz-adv-x="1464" d="M104 676q0 190 59.5 323.5t152 217t204 121.5t215.5 38t216 -38t204 -121.5t152.5 -217t60.5 -323.5q0 -172 -49 -295t-128 -205t-176 -126t-196 -56v-10q0 -39 -17.5 -67t-39.5 -46q-25 -23 -55 -37h317v-174h-510l-68 127q39 0 70 19.5t52.5 49t33.5 63.5t12 65v16 q-92 16 -184 63.5t-163.5 128t-117 200.5t-45.5 284zM307 676q0 -166 49.5 -267.5t118 -156.5t141 -72.5t119.5 -17.5q31 0 75 7t91 27.5t94 56.5t84 92t60.5 138t23.5 193t-23.5 192.5t-60.5 141t-84 96.5t-94 59.5t-91 30.5t-75 8q-47 0 -119.5 -20.5t-141 -77.5 t-118 -160.5t-49.5 -269.5z" />
<glyph unicode="R" horiz-adv-x="1112" d="M82 1260l68 126h415q80 0 159 -29.5t141.5 -86t101.5 -136t39 -180.5q0 -117 -51.5 -203.5t-129.5 -142.5q27 -26 39 -55q4 -12 16.5 -42t29 -71t36 -89t39.5 -97q47 -115 102 -254h-221l-198 489l-3 5q-3 6 -11.5 12t-25 11t-42.5 5h-267v-522h-206v1155l-1 13 q-1 14 -4.5 30t-9.5 33.5t-16 28.5zM299 1212q4 -16 10 -34q4 -16 7 -38t3 -46v-398h232q6 0 21.5 1t31.5 5q88 18 145.5 89t57.5 163q0 96 -61.5 168t-153.5 88q-10 0 -19.5 1t-15.5 1h-14h-244z" />
<glyph unicode="S" horiz-adv-x="1097" d="M102 381h199v-41q0 -45 22.5 -80t59.5 -58.5t82 -35.5t90 -12q39 0 86 8t89 29.5t69.5 61.5t27.5 103t-50 112.5t-123.5 94.5t-162 89t-162 97.5t-123.5 121t-50 159.5t41 158.5t102 110.5t134 64.5t136 20.5q51 0 108.5 -14t111 -42t98.5 -72t69 -101h68v-172h-240v66 q-4 43 -25.5 72.5t-52 50t-66.5 29.5t-71 9q-37 0 -74.5 -10t-69.5 -32.5t-51.5 -56.5t-19.5 -81q0 -61 49.5 -111.5t124 -94.5t161.5 -89t162 -99t124 -122t49 -158q0 -104 -42 -177t-109.5 -117t-151.5 -63t-166 -19q-78 0 -158 21.5t-145.5 69.5t-107.5 124.5t-42 185.5z " />
<glyph unicode="T" horiz-adv-x="1093" d="M63 1208v174h975v-174h-385v-1208h-207v1208h-383z" />
<glyph unicode="U" horiz-adv-x="1214" d="M113 461v901h204v-926q6 -80 39 -141q27 -53 85.5 -97t164.5 -44q51 0 92 12t72 31.5t51.5 45t34.5 52.5q33 61 41 141v926h270v-172h-65v-729q-4 -135 -58 -242q-23 -45 -58.5 -88t-87.5 -77t-125 -54t-167 -20q-96 0 -167.5 20t-125 54t-88.5 77t-57 88 q-53 106 -55 242z" />
<glyph unicode="V" horiz-adv-x="1114" d="M6 1386h211l254 -815l86 -338l84 340l254 813h211l-430 -1386h-240z" />
<glyph unicode="W" horiz-adv-x="1615" d="M12 1386h213l221 -960l17 -170l31 256l233 872v2h2h158v-2l237 -880l29 -248l16 172l222 958h211l-322 -1386h-229l-181 668l-63 344v2v-2v2v-2l-64 -344l-180 -668h-227z" />
<glyph unicode="X" horiz-adv-x="1306" d="M35 0l493 745l-415 637h252l288 -503l291 503h252l-416 -637l494 -745h-252l-369 612l-366 -612h-252z" />
<glyph unicode="Y" horiz-adv-x="1044" d="M14 1384h230l225 -493l49 -160l49 158l228 495h229l-401 -815v-571h-207v571z" />
<glyph unicode="Z" horiz-adv-x="1150" d="M94 -2v205l666 973h-635v206h891v-204v-2l-668 -973h699v-205h-953z" />
<glyph unicode="[" horiz-adv-x="761" d="M158 -264v1937h540v-172h-336v-1591h336v-174h-540z" />
<glyph unicode="\" horiz-adv-x="1036" d="M41 1331h207l739 -1390h-207z" />
<glyph unicode="]" horiz-adv-x="780" d="M76 -88h336v1591h-336v174h540v-1937h-540v172z" />
<glyph unicode="^" horiz-adv-x="913" d="M80 324l252 809h241l250 -809h-213l-73 235l-84 340l-84 -340l-74 -235h-215z" />
<glyph unicode="_" horiz-adv-x="958" d="M0 -182h961v-187h-961v187z" />
<glyph unicode="`" horiz-adv-x="550" d="M55 1622h226l141 -477h-113z" />
<glyph unicode="a" horiz-adv-x="1007" d="M41 293q0 86 27.5 144.5t77 94t115 50t140.5 14.5h291v96q0 33 -12 60q-10 23 -34.5 41t-70.5 18h-215q-41 0 -77.5 -7t-71.5 -38l-98 127q49 47 116.5 69.5t130.5 22.5h215q55 0 111.5 -15.5t103 -49t76 -90t29.5 -138.5v-522h68v-170h-242l-31 68q-31 -25 -78 -43 q-41 -16 -100 -29.5t-145 -13.5q-51 0 -108.5 17t-106 55t-80 97.5t-31.5 141.5zM246 293q0 -53 38 -91t103 -38q78 0 135.5 19.5t95 46t56 55t18.5 45.5v90h-305q-55 0 -98 -31t-43 -96z" />
<glyph unicode="b" horiz-adv-x="1079" d="M45 0v170h68v1206h204v-499q33 31 74 53q35 20 83.5 37.5t103.5 17.5q70 0 144.5 -24.5t136 -83t101 -153.5t39.5 -237q0 -141 -34.5 -237t-93 -155.5t-134 -85t-159.5 -25.5q-74 0 -123 20.5t-80 44.5q-37 29 -58 66l-30 -115h-242zM317 375q0 -43 24 -83t60.5 -69.5 t82.5 -47t94 -17.5q96 0 155.5 82.5t59.5 246.5t-51.5 243t-163.5 79q-55 0 -103.5 -12.5t-83.5 -26.5q-41 -18 -74 -39v-356z" />
<glyph unicode="c" horiz-adv-x="954" d="M84 481q0 141 44 238.5t112.5 158t154.5 87t170 26.5q78 0 157 -27.5t146 -76.5l-96 -129q-25 14 -57 26q-29 10 -66 19.5t-84 9.5q-117 0 -195.5 -85t-78.5 -247q0 -80 22.5 -141t60.5 -102t88 -61.5t103 -20.5t97.5 11t74.5 26q37 16 62 36l100 -129 q-72 -63 -160 -89.5t-176 -26.5q-84 0 -169 24.5t-154.5 83t-112.5 153.5t-43 236z" />
<glyph unicode="d" horiz-adv-x="1075" d="M76 487q0 141 40 237.5t101.5 155t136 84t144.5 25.5q55 0 103 -17.5t83 -39.5q41 -25 76 -58v500h270v-170h-67v-1206h-175l-30 115q-20 -37 -58 -66q-31 -25 -81 -45t-121 -20q-84 0 -160 25.5t-134.5 86t-93 156.5t-34.5 237zM283 487q0 -164 59 -247.5t156 -83.5 q47 0 94 17t84 48t60.5 71t23.5 83v354q-35 23 -76 41q-35 16 -83 29.5t-103 13.5q-113 0 -164 -81t-51 -245z" />
<glyph unicode="e" horiz-adv-x="1042" d="M84 485q0 141 42 237.5t109.5 156t151.5 86t168 26.5q90 0 154.5 -24.5t109.5 -64.5t73 -91t44 -104q25 -86 25 -187q0 -46 -5 -96h-661q8 -66 33.5 -115t61.5 -82.5t81 -50t94 -16.5q53 0 98.5 10t75.5 25q37 16 64 36l96 -127q-72 -63 -160 -89.5t-176 -26.5 q-84 0 -169 24.5t-154.5 83t-112.5 153.5t-43 236zM303 600h467q0 43 -16.5 83t-45 68.5t-68.5 46t-85 17.5q-92 0 -157.5 -55t-94.5 -160z" />
<glyph unicode="f" horiz-adv-x="710" d="M39 809v170h135v68q0 70 15.5 130t51 105t95 70.5t147.5 25.5q55 0 112.5 -11t111.5 -36l-58 -141q-23 10 -56.5 16t-76.5 6q-78 0 -107.5 -50t-29.5 -115v-68h250v-170h-250v-809h-205v809h-135z" />
<glyph unicode="g" horiz-adv-x="1085" d="M51 674q0 63 26.5 118.5t79 96.5t127 64.5t171.5 23.5h581v-172l-182 24q20 -35 28.5 -73.5t8.5 -77.5q0 -53 -17.5 -107.5t-61.5 -99.5t-120 -72.5t-192 -27.5h-78h-55.5t-30.5 2h-25q-20 0 -38.5 -9.5t-18.5 -37.5q0 -23 13.5 -37.5t35.5 -14.5h338q68 0 133.5 -14 t118.5 -50t86 -93.5t33 -143.5q0 -82 -40 -140t-106.5 -95t-150.5 -53.5t-172 -16.5q-78 0 -155 16.5t-143.5 48t-116.5 79t-73 106.5l181 62q2 -20 29.5 -44t69.5 -45.5t96 -36t110 -14.5q53 0 101 8.5t85 25.5t58.5 42t21.5 57q0 37 -14.5 61.5t-38 38t-52 18.5t-57.5 5 h-342q-57 2 -102 23q-39 16 -71 51t-32 100q0 6 20.5 27.5t45.5 46.5q29 29 65 64q-51 16 -90 51q-35 29 -61.5 81t-26.5 134zM252 672q0 -137 221 -137q217 0 217 137q0 70 -48 105.5t-171 35.5q-98 0 -158.5 -36t-60.5 -105z" />
<glyph unicode="h" horiz-adv-x="1110" d="M113 2v1378h204v-516q20 37 58 66q31 25 80 45t123 20q82 0 158.5 -25.5t135 -84t93 -153.5t34.5 -234v-326h68v-170h-272v494q0 160 -61.5 242.5t-155.5 82.5q-47 0 -93.5 -17.5t-83 -47t-60.5 -69.5t-24 -83v-602h-204z" />
<glyph unicode="i" horiz-adv-x="466" d="M78 809v172h270v-981h-205v809h-65zM102 1253q0 51 36 87t87 36t87 -36t36 -87t-36 -87t-87 -36t-87 36t-36 87z" />
<glyph unicode="j" horiz-adv-x="462" d="M-168 -334q53 -23 102.5 -42t104.5 -19q88 0 147.5 25.5t96 70.5t52 105.5t15.5 130.5v1046h-272v-172h65v-874q0 -66 -29.5 -116t-107.5 -50q-43 0 -68.5 14t-48.5 22zM135 1255q0 51 36 87t87 36t87 -36t36 -87t-36 -86.5t-87 -35.5t-87 35.5t-36 86.5z" />
<glyph unicode="k" horiz-adv-x="1060" d="M109 0v1378h204v-794h15q8 0 17 2t20 10l350 383h225l-424 -481l506 -498h-252l-405 391q-16 20 -37 21h-15l2 -412h-206z" />
<glyph unicode="l" horiz-adv-x="495" d="M123 332v1046h207v-1046q0 -61 24.5 -109.5t89.5 -56.5h23l-33 -166q-14 0 -26.5 1t-24.5 3q-74 6 -123 35t-79.5 72t-44 99t-13.5 122z" />
<glyph unicode="m" horiz-adv-x="1523" d="M111 0v979h157l47 -117q20 37 54 66q29 25 70.5 45t101.5 20q68 0 117 -22.5t83 -50.5q37 -33 66 -72q29 39 65 72q33 29 82.5 51t118.5 22q53 0 112.5 -17.5t110 -58t83 -106.5t32.5 -160v-481h68v-170h-271q-2 2 -2 0v651q0 35 -13 66t-36.5 53.5t-54.5 35.5t-68 13 q-66 0 -116 -47t-50 -121v-651h-202v651q0 78 -52.5 123t-126.5 45q-68 0 -120 -47t-52 -121l-2 -651h-202z" />
<glyph unicode="n" horiz-adv-x="1112" d="M113 0v979h157l47 -117q33 37 76 66q37 25 88 45t113 20q82 0 155.5 -21.5t129 -72.5t88 -138t32.5 -218v-373h68v-170h-272v541q0 154 -53.5 216t-147.5 62q-63 0 -114.5 -20.5t-87.5 -51t-55.5 -69.5t-19.5 -76v-602h-204z" />
<glyph unicode="o" horiz-adv-x="1103" d="M72 481q0 141 43 237.5t110.5 156t152.5 85t169 25.5q82 0 169 -25.5t156.5 -85t114.5 -156t45 -237.5t-43 -237.5t-112.5 -155.5t-154.5 -85t-169 -26t-170 26t-155.5 85t-112.5 155.5t-43 237.5zM279 481q0 -80 22.5 -142.5t60 -105.5t88 -65.5t103.5 -22.5t103.5 22.5 t88 65.5t60 105.5t22.5 142.5t-22.5 141.5t-60 104.5t-89 64.5t-108.5 21.5q-117 0 -192.5 -86t-75.5 -246z" />
<glyph unicode="p" horiz-adv-x="1079" d="M47 799v170h240l30 -115q20 37 58 66q31 25 80 45t123 20q84 0 159.5 -25.5t134 -86t93 -157t34.5 -237.5t-39.5 -236.5t-102 -152.5t-138.5 -81.5t-146 -24.5q-55 0 -102 16t-82 37q-39 23 -72 55v-502h-204v1209h-66zM317 238q33 -23 72 -39q35 -14 82 -25.5t102 -11.5 q113 0 166.5 76.5t53.5 240.5t-59.5 248t-155.5 84q-47 0 -93.5 -17.5t-83 -47t-60.5 -69.5t-24 -83v-356z" />
<glyph unicode="q" horiz-adv-x="1081" d="M82 481q0 141 35 237.5t92 156t133 85t160 25.5q74 0 124 -20.5t81 -44.5q37 -29 57 -66l31 117h174v-1207h67v-172h-272v500q-37 -31 -78 -53q-35 -20 -83 -36.5t-103 -16.5q-70 0 -143.5 24.5t-135 82t-100.5 152.5t-39 236zM287 481q0 -164 50 -240.5t163 -76.5 q55 0 103 11t83 26q41 16 78 39v354q0 43 -23.5 83t-60.5 70.5t-84 48t-94 17.5q-94 0 -154.5 -84t-60.5 -248z" />
<glyph unicode="r" horiz-adv-x="819" d="M47 807v170h225l45 -176q20 53 58 96q31 35 81 65.5t124 30.5q66 0 125 -15t112 -50l-119 -152q-49 43 -118 43q-47 0 -94.5 -17.5t-84 -47t-60.5 -69.5t-24 -83v-602h-202v807h-68z" />
<glyph unicode="s" horiz-adv-x="909" d="M41 303h199v-22q0 -41 19.5 -68t50 -43t70.5 -23.5t81 -7.5q31 0 63.5 6.5t59 20.5t43 36.5t16.5 55.5t-17.5 55.5t-47 41t-68.5 35t-82 34.5q-49 20 -106.5 47t-106.5 60.5t-82 78.5t-33 107q0 66 28 118t75 89t109.5 56t133.5 19q121 0 205 -45t125 -110h80v-164h-215 v12q0 27 -13.5 52.5t-38 45t-56 30.5t-68.5 11q-78 0 -122 -31.5t-44 -80.5q0 -29 23.5 -51.5t63.5 -44t95.5 -45t120.5 -54.5q80 -39 129 -71.5t74.5 -64.5t34 -64.5t8.5 -71.5q0 -59 -27.5 -109.5t-78 -86.5t-119 -56t-150.5 -20q-96 0 -176 19t-136.5 59t-88 100.5 t-31.5 144.5z" />
<glyph unicode="t" horiz-adv-x="739" d="M45 807v172h129v45l84 197h123v-242h281v-172h-281v-498q0 -68 29.5 -117t107.5 -49q43 0 76 6.5t55 16.5l60 -141q-53 -25 -110.5 -36.5t-113.5 -11.5q-88 0 -147 26t-96 70t-52.5 104.5t-15.5 129.5v500h-129z" />
<glyph unicode="u" horiz-adv-x="1110" d="M111 440v543h204v-541q2 -160 58.5 -220t158.5 -60q55 0 102.5 20.5t82.5 53t55.5 74.5t20.5 85l2 588h202v-811h68v-172h-225l-47 121l-17 -21q-18 -20 -52 -44.5t-82 -45t-110 -20.5q-78 0 -153.5 18.5t-135 68.5t-96 137t-36.5 226z" />
<glyph unicode="v" horiz-adv-x="886" d="M18 985h213l127 -410l86 -337l84 337l127 410h213l-305 -983h-239z" />
<glyph unicode="w" horiz-adv-x="1341" d="M20 981h213l150 -680l16 -166l17 162l149 684h2h211l150 -680l16 -166l19 162l149 684h211l-258 -983h-240l-127 479l-26 262l-27 -262l-125 -479h-241z" />
<glyph unicode="x" horiz-adv-x="1011" d="M37 983h250l219 -344l217 344h250l-342 -494l338 -489h-250l-213 340l-215 -340h-250l340 489z" />
<glyph unicode="y" horiz-adv-x="899" d="M27 979h213l206 -594l19 -195v-2v2l20 195l179 594h213l-297 -959l-45 -149q-20 -68 -53 -120t-81.5 -85t-112.5 -39q-12 -1 -25 -1q-54 0 -122 20l17 168q28 -9 52 -9q40 0 70 24q48 38 72 103l21 64z" />
<glyph unicode="z" horiz-adv-x="1028" d="M90 0v84l535 725h-504v176h768v-119l-494 -688h549v-178h-854z" />
<glyph unicode="{" horiz-adv-x="710" d="M152 682v57l45 23q18 10 36.5 21.5t30.5 21.5q23 18 32 50t9 65q0 63 -9 111t-20.5 90t-20.5 81t-9 82q0 92 23.5 158.5t59.5 111.5t80 71t87 40t78.5 18.5t56.5 4.5v-64q-23 -4 -56.5 -18.5t-64.5 -51t-53.5 -103.5t-22.5 -173q0 -10 9.5 -59.5t21.5 -113t21.5 -125.5 t9.5 -101q0 -72 -20.5 -117t-59.5 -51q39 -8 59.5 -53.5t20.5 -116.5q0 -37 -9.5 -100.5t-21.5 -126t-21.5 -112.5t-9.5 -61q0 -106 22.5 -172.5t53.5 -103.5t64.5 -52.5t56.5 -17.5v-63q-18 0 -55 4t-80 18.5t-87 41t-80 71.5t-59.5 110.5t-23.5 157.5q0 43 9 82t20.5 81 t20.5 90t9 112q0 33 -8 63.5t-33 52.5q-14 10 -32.5 21.5t-36.5 21.5q-23 10 -43 23z" />
<glyph unicode="|" horiz-adv-x="409" d="M123 -356v1869h170v-1869h-170z" />
<glyph unicode="}" horiz-adv-x="606" d="M68 -211q23 2 56.5 17.5t64 52.5t53 103.5t22.5 172.5q0 10 -9 59.5t-21.5 113t-21.5 126t-9 101.5q0 72 20.5 116.5t59.5 50.5q-39 8 -59.5 53.5t-20.5 116.5q0 37 9 100.5t21.5 126t21.5 113t9 60.5q0 106 -22.5 172.5t-53 103.5t-64.5 51.5t-56 18.5v63q18 0 55 -4 t80 -18t87 -41t80 -72t59.5 -110.5t23.5 -157.5q0 -43 -9.5 -82t-20.5 -81t-20.5 -90t-9.5 -112q0 -33 8.5 -63.5t32.5 -52.5q12 -10 31.5 -21.5t38.5 -21.5q23 -10 43 -23v-57l-45 -23q-18 -10 -38 -21.5t-30 -21.5q-23 -18 -32 -50t-9 -64q0 -63 9.5 -111.5t20.5 -90.5 t20.5 -81t9.5 -82q0 -92 -23.5 -158.5t-59.5 -111.5t-80 -71t-87 -40t-80 -18t-55 -4v63z" />
<glyph unicode="~" horiz-adv-x="1699" d="M84 328v61q0 176 104 287q47 53 112 79.5t138 26.5q154 0 434 -131q260 -123 404 -123q74 0 110 52q39 55 44 174l2 28h182v-53q0 -197 -111 -307q-92 -94 -235 -94q-162 0 -437 133h-2q-125 66 -225 98.5t-166 32.5q-80 0 -123 -55q-43 -59 -47 -181v-28h-184z" />
<glyph horiz-adv-x="1710" d="M123 109v213l592 354l-592 352v213l770 -446v-240zM860 109v213l592 354l-592 352v213l770 -446v-240z" />
<glyph horiz-adv-x="835" d="M109 1110q0 86 34.5 142.5t77.5 88.5q49 37 113 58l47 -72q-25 -25 -43 -49q-16 -23 -26.5 -50.5t-2.5 -53.5q0 -4 2 -5q53 -37 54 -102q0 -51 -36 -87t-87 -36q-66 0 -99.5 51.5t-33.5 114.5zM479 1110q0 86 35 142.5t78 88.5q49 37 113 58l47 -72q-25 -25 -43 -49 q-16 -23 -26.5 -50.5t-2.5 -53.5q0 -4 2 -5q53 -37 53 -102q0 -51 -36 -87t-87 -36q-66 0 -99.5 51.5t-33.5 114.5z" />
<glyph horiz-adv-x="882" d="M104 1042q25 25 43 50q16 23 25.5 49t3.5 55q0 4 -2 4q-53 37 -53 103q0 51 36 86.5t87 35.5q66 0 99.5 -51t33.5 -114q0 -88 -36 -143.5t-77 -88.5q-51 -37 -112 -57zM498 1042q25 25 43 50q16 23 25 49t3 55q0 4 -2 4q-53 37 -53 103q0 51 36 86.5t87 35.5 q66 0 99.5 -51t33.5 -114q0 -88 -36 -143.5t-77 -88.5q-51 -37 -112 -57z" />
<glyph horiz-adv-x="505" d="M63 1110q0 86 35 142.5t78 88.5q49 37 113 58l47 -72q-25 -25 -43 -49q-16 -23 -26.5 -50.5t-2.5 -53.5q0 -4 2 -5q53 -37 53 -102q0 -51 -35.5 -87t-86.5 -36q-66 0 -100 51.5t-34 114.5z" />
<glyph horiz-adv-x="505" d="M123 1016q25 25 43 49q16 23 25.5 49.5t3.5 54.5q0 4 -2 5q-53 37 -54 102q0 51 36 87t87 36q66 0 99.5 -51.5t33.5 -114.5q0 -88 -35.5 -143.5t-76.5 -88.5q-51 -37 -113 -57z" />
<glyph unicode="&#xa1;" horiz-adv-x="430" d="M72 989q0 59 41 100t100 41t100 -40.5t41 -100.5q0 -59 -41 -101t-100 -42t-100 42t-41 101zM94 -272h238l-47 991h-144z" />
<glyph unicode="&#xa2;" horiz-adv-x="1067" d="M158 530q0 125 34.5 216.5t92 151.5t130 94t148.5 44v224h121v-222q68 -8 134.5 -33.5t123.5 -68.5l-96 -129q-20 12 -45 22q-23 10 -51.5 19.5t-65.5 13.5v-653q45 4 80 15.5t59 23.5q29 14 49 31l101 -129q-61 -53 -136 -81t-153 -34v-166h-121v170q-76 8 -148.5 40 t-130 90t-92 147.5t-34.5 213.5zM365 530q0 -131 57 -209.5t141 -103.5v637q-88 -25 -143 -107t-55 -217z" />
<glyph unicode="&#xa3;" horiz-adv-x="825" />
<glyph unicode="&#xa4;" horiz-adv-x="806" />
<glyph unicode="&#xa5;" horiz-adv-x="825" />
<glyph unicode="&#xa6;" horiz-adv-x="530" d="M127 -330v762h201v-762h-201zM127 748v759h201v-759h-201z" />
<glyph unicode="&#xa7;" horiz-adv-x="1026" d="M88 248h199v-23q0 -45 17.5 -80.5t48 -61.5t71.5 -39t86 -13q78 0 137.5 27.5t59.5 93.5q0 33 -19.5 57t-52.5 44.5t-75 39t-85 37.5q-49 20 -106.5 46.5t-106.5 60.5t-82 79t-33 107q0 72 35 125t94 88q-53 35 -91 82t-38 112q0 66 30 117t81 86t116.5 53.5t139.5 18.5 q72 0 124 -11.5t92 -32t70.5 -50t59.5 -66.5h43v-164h-215v12q0 53 -44 95t-130 42q-66 0 -117 -23.5t-51 -72.5q0 -33 23.5 -54.5t65.5 -39.5t97.5 -37.5t120.5 -50.5q143 -66 200.5 -129.5t57.5 -153.5q0 -66 -28.5 -118t-77.5 -91q57 -43 81.5 -91t24.5 -107 q0 -68 -30.5 -122t-83 -93t-124 -60.5t-153.5 -21.5q-104 0 -184 27.5t-135.5 79t-84 122t-28.5 154.5zM346 625q0 -31 21.5 -51.5t58.5 -38t88 -36t111 -42.5q37 14 59.5 38.5t22.5 63.5q0 29 -16.5 52.5t-44.5 43t-64.5 37t-75.5 33.5v-2q-63 -2 -111.5 -26.5t-48.5 -71.5 z" />
<glyph unicode="&#xa8;" horiz-adv-x="378" />
<glyph unicode="&#xaa;" horiz-adv-x="491" />
<glyph unicode="&#xac;" horiz-adv-x="817" />
<glyph unicode="&#xad;" horiz-adv-x="503" />
<glyph unicode="&#xaf;" horiz-adv-x="378" />
<glyph unicode="&#xb0;" horiz-adv-x="841" d="M80 829q0 70 26.5 130.5t71.5 105.5t105.5 71.5t130.5 26.5t130 -26.5t105 -71.5t72 -105.5t27 -130.5t-27 -130t-72 -105t-105.5 -71.5t-129.5 -26.5q-70 0 -130.5 26.5t-105.5 71.5t-71.5 105t-26.5 130zM240 825q0 -72 51 -123t123 -51t124 51t52 123t-52.5 124 t-123.5 52q-72 0 -123 -52t-51 -124z" />
<glyph unicode="&#xb1;" horiz-adv-x="1071" d="M111 0v205h854v-205h-854zM111 627v204h323v324h205v-324h326v-204h-326v-324h-205v324h-323z" />
<glyph unicode="&#xb2;" horiz-adv-x="524" />
<glyph unicode="&#xb3;" horiz-adv-x="524" />
<glyph unicode="&#xb4;" horiz-adv-x="378" />
<glyph unicode="&#xb5;" horiz-adv-x="825" />
<glyph unicode="&#xb6;" horiz-adv-x="1153" d="M100 922q0 80 26 161.5t91.5 148t176 107.5t282.5 41q20 0 87.5 -1t141.5 -1h191v-174h-117v-1337h-188v1337h-150v-1337h-131v653h-14q-61 0 -131 25.5t-128.5 76t-97.5 125t-39 175.5z" />
<glyph unicode="&#xb7;" horiz-adv-x="403" />
<glyph unicode="&#xb8;" horiz-adv-x="378" />
<glyph unicode="&#xb9;" horiz-adv-x="524" />
<glyph unicode="&#xba;" horiz-adv-x="491" />
<glyph unicode="&#xbc;" horiz-adv-x="1708" d="M109 698h596v172h-203v525h-393v-172h188v-353h-188v-172zM340 8l922 1391h204l-921 -1391h-205zM903 8h391v-182h205v182h113v205h-113v434h-219l-377 -444v-195zM1130 213l164 190v-190h-164z" />
<glyph unicode="&#xbd;" horiz-adv-x="1828" d="M104 1219h189l2 -353h-189v-172h596v172h-202v525h-396v-172zM338 4l922 1391h204l-921 -1391h-205zM1065 463h221v65q8 86 46 123t108 37q47 0 71.5 -37t24.5 -86q0 -25 -18.5 -56.5t-48 -65t-67.5 -69.5t-77 -69q-94 -80 -211 -162v-143h619v207h-320q84 47 152 102 q57 47 105 112.5t48 143.5q0 88 -33.5 145.5t-78.5 91.5t-92.5 48t-73.5 14q-102 0 -189.5 -56t-138.5 -175h-47v-170z" />
<glyph unicode="&#xbe;" horiz-adv-x="1761" d="M45 1184v133h68q35 45 67.5 74.5t69.5 46t78 22.5t92 6q74 0 140.5 -14t115.5 -48t77.5 -88t28.5 -134q0 -57 -22.5 -88t-50.5 -47q-33 -19 -72 -23q39 -12 72 -37q29 -23 51 -59.5t22 -93.5q0 -125 -88 -194t-250 -69q-92 0 -161.5 12.5t-116.5 43t-70.5 83t-23.5 134.5 h213v-39q0 -14 15 -25.5t37.5 -18.5t51.5 -11.5t55 -4.5q66 0 104 24t38 69q0 20 -3 37.5t-15.5 30t-38 19.5t-72.5 7h-121v170h121q39 0 64.5 8t39.5 20.5t19.5 26.5t5.5 25q0 61 -40 85.5t-126 24.5q-70 0 -102.5 -18.5t-32.5 -63.5v-26h-240zM414 4l921 1391h205 l-922 -1391h-204zM977 4v195l377 444h219v-434h113v-205h-113v-182h-205v182h-391zM1206 209h162v190z" />
<glyph unicode="&#xbf;" horiz-adv-x="960" d="M94 -10q0 -125 101.5 -209t289.5 -84t287.5 73.5t99.5 219.5v63h-204v-63q-4 -23 -13.5 -44.5t-29 -39t-54 -27.5t-86.5 -10q-53 0 -88 13.5t-57.5 31.5t-31.5 38.5t-9 37.5v84q0 76 49 133t109.5 113.5t109.5 121t49 154.5v172h-204v-164q0 -49 -49.5 -107.5 t-109.5 -123t-109.5 -136t-49.5 -149.5v-98zM375 985q0 59 42 100t101 41t100 -41t41 -100t-40.5 -100t-100.5 -41q-59 0 -101 41t-42 100z" />
<glyph unicode="&#xc0;" horiz-adv-x="1341" d="M39 0l559 1384h147l564 -1384h-222l-167 412h-498l-166 -412h-217zM492 582h360l-168 411l-12 99l-13 -99z" />
<glyph unicode="&#xd7;" horiz-adv-x="1122" d="M174 412l227 229l-227 229l145 146l228 -230l229 230l146 -146l-230 -229l230 -229l-146 -146l-229 230l-228 -230z" />
<glyph unicode="&#xdd;" horiz-adv-x="778" d="M92 477v205h594v-205h-594z" />
<glyph unicode="&#xde;" horiz-adv-x="1552" d="M92 475v205h1368v-205h-1368z" />
<glyph unicode="&#xe6;" horiz-adv-x="2050" d="M240 293q0 86 27.5 144.5t77 94t115 50t140.5 14.5h291v96q0 33 -12 60q-10 23 -34.5 41t-70.5 18h-215q-41 0 -77.5 -7t-71.5 -38l-98 127q49 47 116.5 69.5t130.5 22.5h215q55 0 111.5 -15.5t103 -49t76 -90t29.5 -138.5v-522h68v-170h-242l-31 68q-31 -25 -78 -43 q-41 -16 -100 -29.5t-145 -13.5q-51 0 -108.5 17t-106 55t-80 97.5t-31.5 141.5zM445 293q0 -53 38 -91t103 -38q78 0 135.5 19.5t95 46t56 55t18.5 45.5v90h-305q-55 0 -98 -31t-43 -96zM875 485q0 141 42 237.5t109.5 156t151.5 86t168 26.5q90 0 154.5 -24.5t109.5 -64.5 t73 -91t44 -104q37 -125 20 -283h-661q8 -66 33.5 -115t61.5 -82.5t81 -50t94 -16.5q53 0 98.5 10t75.5 25q37 16 64 36l96 -127q-72 -63 -160 -89.5t-176 -26.5q-84 0 -169 24.5t-154.5 83t-112.5 153.5t-43 236zM1094 600h467q0 43 -16.5 83t-45 68.5t-68.5 46t-85 17.5 q-92 0 -157.5 -55t-94.5 -160z" />
<glyph unicode="&#xe7;" horiz-adv-x="954" d="M84 481q0 141 44 238.5t112.5 158t154.5 87t170 26.5q78 0 157 -27.5t146 -76.5l-96 -129q-25 14 -57 26q-29 10 -66 19.5t-84 9.5q-117 0 -195.5 -85t-78.5 -247q0 -80 22.5 -141t60.5 -102t88 -61.5t103 -20.5t97.5 11t74.5 26q37 16 62 36l100 -129 q-72 -63 -160 -89.5t-176 -26.5q-84 0 -169 24.5t-154.5 83t-112.5 153.5t-43 236z" />
<glyph unicode="&#xed;" d="M-639 1415q0 47 19.5 80t52 54.5t77 30.5t95.5 9q102 0 172.5 -41t70.5 -133q0 -53 -19 -86t-52 -52.5t-77 -26.5t-95 -7t-95.5 7t-77 26.5t-52 52.5t-19.5 86zM-475 1415q0 -41 23.5 -55t56.5 -14t55.5 14t22.5 55t-22.5 56.5t-55.5 15.5t-56.5 -15.5t-23.5 -56.5z" />
<glyph unicode="&#xe4d;" d="M-639 1415q0 47 19.5 80t52 54.5t77 30.5t95.5 9q102 0 172.5 -41t70.5 -133q0 -53 -19 -86t-52 -52.5t-77 -26.5t-95 -7t-95.5 7t-77 26.5t-52 52.5t-19.5 86zM-475 1415q0 -41 23.5 -55t56.5 -14t55.5 14t22.5 55t-22.5 56.5t-55.5 15.5t-56.5 -15.5t-23.5 -56.5z" />
<glyph unicode="&#xee;" horiz-adv-x="923" d="M68 1358v65h333v-65h-122v-379h-89v379h-122zM444 979v444h86l111 -295l4 -57l4 55l111 297h86v-444h-76v305l-20 -78l-66 -180h-78l-65 182l-21 76v-305h-76z" />
<glyph unicode="&#xf7;" horiz-adv-x="1077" d="M113 522h852v205h-852v-205zM393 268q0 61 43 103.5t103 42.5q59 0 102 -42.5t43 -103.5q0 -59 -43 -101t-102 -42t-102.5 42t-43.5 101zM393 993q0 61 43 103.5t103 42.5q59 0 102 -42.5t43 -103.5q0 -59 -43 -101t-102 -42t-102.5 42t-43.5 101z" />
<glyph unicode="&#xf8;" horiz-adv-x="1136" d="M84 487q0 141 43 237.5t110.5 156t151.5 85t168 25.5q39 0 79 -5t79 -17l110 211h207l-155 -293q74 -59 120.5 -156.5t46.5 -243.5q0 -141 -44 -236t-112.5 -154.5t-154.5 -85t-170 -25.5q-82 0 -155 20l-115 -217h-207l160 301q-72 59 -117 155.5t-45 241.5zM289 487 q0 -66 15 -118t42 -93l283 531q-16 4 -35 6t-37 2q-117 0 -192.5 -83t-75.5 -245zM494 168q36 -10 69 -10q53 0 103.5 21.5t88.5 63.5t60.5 103.5t22.5 140.5q0 68 -15.5 121.5t-44.5 93.5z" />
<glyph unicode="&#xfa;" horiz-adv-x="913" d="M55 1167q0 84 32 158t86 128t128 86t158 32q82 0 155.5 -32t128 -86t86 -128t31.5 -158t-31.5 -156.5t-86 -128t-128 -87t-155.5 -31.5q-84 0 -158 31.5t-128 87t-86 128t-32 156.5zM123 1167q0 -70 26.5 -130t71.5 -106t106.5 -73t131.5 -27t130 27t105 73t72 106.5 t27 129.5q0 70 -27 131.5t-72 106.5t-105 71.5t-130 26.5t-131.5 -26.5t-106.5 -71.5t-71.5 -106.5t-26.5 -131.5zM305 1352q4 -4 8 -21q2 -8 2 -14v-369h80v158h94q10 0 14.5 -2t8.5 -4q4 -4 4 -6l55 -146h86l-32 82q-12 31 -24.5 58.5t-14.5 35.5q-4 8 -13 19 q25 16 41.5 45t16.5 65q0 66 -44 102t-98 36h-163zM389 1321h78h4q2 0 5 -1t7 -1q29 -4 49.5 -21.5t20.5 -48.5t-18.5 -48t-47.5 -23q-4 -2 -10 -2h-6h-76v106q0 16 -4 29q-2 6 -2 10z" />
<glyph unicode="&#xfb;" horiz-adv-x="1884" d="M121 659q0 170 64.5 320.5t177 262.5t263 177.5t320.5 65.5t320.5 -65.5t262 -177.5t177.5 -262.5t66 -320.5t-66 -320.5t-177.5 -263t-262 -177t-320.5 -64.5t-320.5 64.5t-263 177t-177 263t-64.5 320.5zM260 659q0 -141 54.5 -266t147.5 -218t218 -147.5t266 -54.5 t267 54.5t219.5 147.5t147.5 218t54 266t-54 267.5t-147.5 219.5t-219.5 147.5t-267 54.5t-266 -54.5t-218 -147.5t-147.5 -219t-54.5 -268zM516 655q0 -127 39 -214t101.5 -139t140 -74.5t153.5 -22.5q78 0 158 23.5t143 80.5l-88 117q-25 -18 -57 -33q-29 -12 -68 -22.5 t-88 -10.5t-93 18.5t-79 55.5t-55.5 92.5t-20.5 128.5q0 145 72 223t176 78q41 0 77 -8t60 -18q29 -12 52 -27l86 119q-59 45 -131 69.5t-144 24.5q-76 0 -152.5 -24.5t-139 -79t-102.5 -142.5t-40 -215z" />
<glyph unicode="&#x152;" horiz-adv-x="806" d="M39 342q0 29 18.5 50.5t53.5 21.5q23 0 51 -5.5t71 -15.5l148 -24q-8 31 -11 63.5t-3 65.5q0 31 4 58.5t10 53.5l-148 -26q-43 -8 -71.5 -14.5t-50.5 -6.5q-35 0 -53.5 21.5t-18.5 52.5q0 29 18.5 50.5t53.5 21.5q23 0 51 -6.5t71 -14.5l148 -26l-29 106q-6 23 -15 58.5 t-9 66.5q0 35 19.5 55.5t58.5 20.5q37 0 56 -20.5t19 -55.5q0 -31 -9 -66.5t-15 -58.5l-29 -106l145 26q45 8 73 14.5t50 6.5q35 0 53.5 -21.5t18.5 -50.5q0 -31 -18.5 -52.5t-53.5 -21.5q-23 0 -50.5 6t-72.5 15l-145 26q4 -27 9 -54.5t5 -57.5q0 -33 -4 -66t-10 -63 l145 24q45 10 73 15.5t50 5.5q35 0 53.5 -21.5t18.5 -50.5t-18.5 -50.5t-53.5 -21.5q-23 0 -50.5 5.5t-72.5 15.5l-145 24q14 -18 21.5 -34.5t7.5 -38.5q0 -25 -2 -48.5t-6 -54.5l-21 -344h-47l-21 344q-4 31 -6 54.5t-2 48.5q0 23 6.5 39t22.5 34l-148 -24 q-43 -10 -71.5 -15.5t-50.5 -5.5q-35 0 -53.5 21.5t-18.5 50.5z" />
<glyph unicode="&#x2021;" horiz-adv-x="806" d="M39 342q0 29 18.5 50.5t53.5 21.5q23 0 51 -5.5t71 -15.5l148 -24q-8 31 -11 63.5t-3 65.5q0 31 4 58.5t10 53.5l-148 -26q-43 -8 -71.5 -14.5t-50.5 -6.5q-35 0 -53.5 21.5t-18.5 52.5q0 29 18.5 50.5t53.5 21.5q23 0 51 -6.5t71 -14.5l148 -26l-29 106q-6 23 -15 58.5 t-9 66.5q0 35 19.5 55.5t58.5 20.5q37 0 56 -20.5t19 -55.5q0 -31 -9 -66.5t-15 -58.5l-29 -106l145 26q45 8 73 14.5t50 6.5q35 0 53.5 -21.5t18.5 -50.5q0 -31 -18.5 -52.5t-53.5 -21.5q-23 0 -50.5 6t-72.5 15l-145 26q4 -27 9 -54.5t5 -57.5q0 -33 -4 -66t-10 -63 l145 24q45 10 73 15.5t50 5.5q35 0 53.5 -21.5t18.5 -50.5t-18.5 -50.5t-53.5 -21.5q-23 0 -50.5 5.5t-72.5 15.5l-145 24q14 -18 21.5 -34.5t7.5 -38.5q0 -25 -2 -48.5t-6 -54.5l-21 -344h-47l-21 344q-4 31 -6 54.5t-2 48.5q0 23 6.5 39t22.5 34l-148 -24 q-43 -10 -71.5 -15.5t-50.5 -5.5q-35 0 -53.5 21.5t-18.5 50.5z" />
<glyph unicode="&#xe4c;" horiz-adv-x="806" d="M39 342q0 29 18.5 50.5t53.5 21.5q23 0 51 -5.5t71 -15.5l148 -24q-8 31 -11 63.5t-3 65.5q0 31 4 58.5t10 53.5l-148 -26q-43 -8 -71.5 -14.5t-50.5 -6.5q-35 0 -53.5 21.5t-18.5 52.5q0 29 18.5 50.5t53.5 21.5q23 0 51 -6.5t71 -14.5l148 -26l-29 106q-6 23 -15 58.5 t-9 66.5q0 35 19.5 55.5t58.5 20.5q37 0 56 -20.5t19 -55.5q0 -31 -9 -66.5t-15 -58.5l-29 -106l145 26q45 8 73 14.5t50 6.5q35 0 53.5 -21.5t18.5 -50.5q0 -31 -18.5 -52.5t-53.5 -21.5q-23 0 -50.5 6t-72.5 15l-145 26q4 -27 9 -54.5t5 -57.5q0 -33 -4 -66t-10 -63 l145 24q45 10 73 15.5t50 5.5q35 0 53.5 -21.5t18.5 -50.5t-18.5 -50.5t-53.5 -21.5q-23 0 -50.5 5.5t-72.5 15.5l-145 24q14 -18 21.5 -34.5t7.5 -38.5q0 -25 -2 -48.5t-6 -54.5l-21 -344h-47l-21 344q-4 31 -6 54.5t-2 48.5q0 23 6.5 39t22.5 34l-148 -24 q-43 -10 -71.5 -15.5t-50.5 -5.5q-35 0 -53.5 21.5t-18.5 50.5z" />
<glyph unicode="&#x153;" horiz-adv-x="806" d="M39 342q0 29 18.5 50.5t53.5 21.5q23 0 51 -5.5t71 -15.5l148 -24q-8 31 -11 63.5t-3 65.5q0 31 4 58.5t10 53.5l-148 -26q-43 -8 -71.5 -14.5t-50.5 -6.5q-35 0 -53.5 21.5t-18.5 52.5q0 29 18.5 50.5t53.5 21.5q23 0 51 -6.5t71 -14.5l148 -26l-29 106q-6 23 -15 58.5 t-9 66.5q0 35 19.5 55.5t58.5 20.5q37 0 56 -20.5t19 -55.5q0 -31 -9 -66.5t-15 -58.5l-29 -106l145 26q45 8 73 14.5t50 6.5q35 0 53.5 -21.5t18.5 -50.5q0 -31 -18.5 -52.5t-53.5 -21.5q-23 0 -50.5 6t-72.5 15l-145 26q4 -27 9 -54.5t5 -57.5q0 -33 -4 -66t-10 -63 l145 24q45 10 73 15.5t50 5.5q35 0 53.5 -21.5t18.5 -50.5t-18.5 -50.5t-53.5 -21.5q-23 0 -50.5 5.5t-72.5 15.5l-145 24q14 -18 21.5 -34.5t7.5 -38.5q0 -25 -2 -48.5t-6 -54.5l-21 -344h-47l-21 344q-4 31 -6 54.5t-2 48.5q0 23 6.5 39t22.5 34l-148 -24 q-43 -10 -71.5 -15.5t-50.5 -5.5q-35 0 -53.5 21.5t-18.5 50.5z" />
<glyph unicode="&#x160;" horiz-adv-x="909" d="M41 303h199v-22q0 -41 19.5 -68t50 -43t70.5 -23.5t81 -7.5q31 0 63.5 6.5t59 20.5t43 36.5t16.5 55.5t-17.5 55.5t-47 41t-68.5 35t-82 34.5q-49 20 -106.5 47t-106.5 60.5t-82 78.5t-33 107q0 66 28 118t75 89t109.5 56t133.5 19q121 0 205 -45t125 -110h80v-164h-215 v12q0 27 -13.5 52.5t-38 45t-56 30.5t-68.5 11q-78 0 -122 -31.5t-44 -80.5q0 -29 23.5 -51.5t63.5 -44t95.5 -45t120.5 -54.5q80 -39 129 -71.5t74.5 -64.5t34 -64.5t8.5 -71.5q0 -59 -27.5 -109.5t-78 -86.5t-119 -56t-150.5 -20q-96 0 -176 19t-136.5 59t-88 100.5 t-31.5 144.5z" />
<glyph unicode="&#x2026;" horiz-adv-x="909" d="M41 303h199v-22q0 -41 19.5 -68t50 -43t70.5 -23.5t81 -7.5q31 0 63.5 6.5t59 20.5t43 36.5t16.5 55.5t-17.5 55.5t-47 41t-68.5 35t-82 34.5q-49 20 -106.5 47t-106.5 60.5t-82 78.5t-33 107q0 66 28 118t75 89t109.5 56t133.5 19q121 0 205 -45t125 -110h80v-164h-215 v12q0 27 -13.5 52.5t-38 45t-56 30.5t-68.5 11q-78 0 -122 -31.5t-44 -80.5q0 -29 23.5 -51.5t63.5 -44t95.5 -45t120.5 -54.5q80 -39 129 -71.5t74.5 -64.5t34 -64.5t8.5 -71.5q0 -59 -27.5 -109.5t-78 -86.5t-119 -56t-150.5 -20q-96 0 -176 19t-136.5 59t-88 100.5 t-31.5 144.5z" />
<glyph unicode="&#xe4a;" horiz-adv-x="909" d="M41 303h199v-22q0 -41 19.5 -68t50 -43t70.5 -23.5t81 -7.5q31 0 63.5 6.5t59 20.5t43 36.5t16.5 55.5t-17.5 55.5t-47 41t-68.5 35t-82 34.5q-49 20 -106.5 47t-106.5 60.5t-82 78.5t-33 107q0 66 28 118t75 89t109.5 56t133.5 19q121 0 205 -45t125 -110h80v-164h-215 v12q0 27 -13.5 52.5t-38 45t-56 30.5t-68.5 11q-78 0 -122 -31.5t-44 -80.5q0 -29 23.5 -51.5t63.5 -44t95.5 -45t120.5 -54.5q80 -39 129 -71.5t74.5 -64.5t34 -64.5t8.5 -71.5q0 -59 -27.5 -109.5t-78 -86.5t-119 -56t-150.5 -20q-96 0 -176 19t-136.5 59t-88 100.5 t-31.5 144.5z" />
<glyph unicode="&#x161;" horiz-adv-x="909" d="M41 303h199v-22q0 -41 19.5 -68t50 -43t70.5 -23.5t81 -7.5q31 0 63.5 6.5t59 20.5t43 36.5t16.5 55.5t-17.5 55.5t-47 41t-68.5 35t-82 34.5q-49 20 -106.5 47t-106.5 60.5t-82 78.5t-33 107q0 66 28 118t75 89t109.5 56t133.5 19q121 0 205 -45t125 -110h80v-164h-215 v12q0 27 -13.5 52.5t-38 45t-56 30.5t-68.5 11q-78 0 -122 -31.5t-44 -80.5q0 -29 23.5 -51.5t63.5 -44t95.5 -45t120.5 -54.5q80 -39 129 -71.5t74.5 -64.5t34 -64.5t8.5 -71.5q0 -59 -27.5 -109.5t-78 -86.5t-119 -56t-150.5 -20q-96 0 -176 19t-136.5 59t-88 100.5 t-31.5 144.5z" />
<glyph unicode="&#x178;" horiz-adv-x="1050" d="M14 1384h230l225 -493l49 -160l49 158l228 495h229l-401 -815v-571h-207v571z" />
<glyph unicode="&#x192;" horiz-adv-x="378" />
<glyph unicode="&#xe48;" horiz-adv-x="378" />
<glyph unicode="&#x2dc;" horiz-adv-x="378" />
<glyph unicode="&#x2c6;" horiz-adv-x="378" />
<glyph unicode="&#x2dd;" horiz-adv-x="757" />
<glyph unicode="&#x300;" />
<glyph unicode="&#x301;" />
<glyph unicode="&#x303;" />
<glyph unicode="&#x323;" />
<glyph unicode="&#xe00;" horiz-adv-x="876" />
<glyph unicode="&#xe01;" horiz-adv-x="1042" d="M72 965l67 127h469q55 0 111.5 -14.5t103.5 -48.5t77 -90t30 -138v-629h65v-172h-270v801q0 51 -35 85t-82 34h-319q4 -16 10 -35q4 -16 7 -38t3 -46v-801h-207v862l-1 12q-1 13 -4 30.5t-9 33.5t-16 27z" />
<glyph unicode="&#xe02;" horiz-adv-x="905" d="M100 268v330q0 43 15.5 83t34 75t34 62.5t15.5 47.5q0 25 -14.5 34t-53.5 13v177q25 2 47 6q20 4 42 6t38 2q59 0 103.5 -46t44.5 -112v-35q0 -49 -16.5 -92t-35 -81t-34 -74.5t-15.5 -75.5v-320q0 -51 36 -83.5t81 -32.5h39q47 0 82 32.5t35 83.5v822h270v-172h-66v-650 q0 -80 -29.5 -135t-75.5 -90t-103.5 -50.5t-112.5 -15.5h-39q-55 0 -111.5 15.5t-103.5 49.5t-77 89t-30 137z" />
<glyph unicode="&#xe03;" horiz-adv-x="907" d="M-4 1049l145 45v-11q4 -14 11 -24q10 -23 34 -23q16 0 29.5 11.5t26 24.5t26 24.5t31.5 11.5q20 0 41.5 -14.5t40 -37t30 -50t11.5 -54.5v-65q0 -49 -17.5 -87t-39 -71t-39 -64.5t-17.5 -70.5v-320q0 -51 35 -83.5t80 -32.5h41q45 0 80 32.5t35 83.5v820h270v-170h-66 v-650q0 -82 -29.5 -137t-75.5 -89t-103.5 -49t-110.5 -15h-41q-53 0 -110.5 15t-104.5 49t-77 89.5t-30 136.5v330q0 43 20.5 81t46.5 70.5t46.5 59.5t20.5 47q0 35 -23 35q-20 0 -40.5 -13.5t-49.5 -13.5q-23 0 -45.5 13.5t-41 38t-29.5 57.5t-11 70z" />
<glyph unicode="&#xe04;" horiz-adv-x="1107" d="M113 0v799q0 82 29.5 138t75.5 90t103.5 49.5t110.5 15.5h232q70 -2 127 -20.5t100 -55.5t67.5 -91.5t26.5 -125.5v-629h66v-170h-273v799q0 53 -34.5 87t-79.5 32h-232q-45 0 -80 -34t-35 -85v-166q25 10 47.5 14t38.5 8q20 4 37 4q59 0 109.5 -11t91.5 -30l-78 -145 q-45 6 -89 3t-79 -21.5t-56.5 -52t-21.5 -87.5v-315h-204z" />
<glyph unicode="&#xe05;" horiz-adv-x="1153" d="M113 0v801q0 70 26.5 124t71.5 91t104.5 56.5t122.5 19.5h15l116 -138l121 138h31q63 0 119.5 -19.5t98.5 -56.5t66.5 -91.5t24.5 -123.5v-629h66v-172h-271v801q0 51 -28.5 85t-75.5 34h-31l-57 -72h-123l-57 72h-31q-45 0 -74 -34t-29 -85v-146q25 10 46.5 14.5 t37.5 8.5q20 4 37 4q59 0 110.5 -11.5t92.5 -29.5l-78 -145q-45 6 -89 3t-79 -21.5t-56.5 -52.5t-21.5 -87v-338h-206z" />
<glyph unicode="&#xe06;" horiz-adv-x="1038" d="M-4 1053l145 45v-11q4 -14 11 -24q10 -23 34 -23q16 0 29.5 11.5t26 25t26 24.5t31.5 11q20 0 41.5 -14.5t40 -37t30 -50t11.5 -54.5v-65q0 -49 -17.5 -87t-39 -71t-39 -64.5t-17.5 -70.5l-2 -240q0 -41 23.5 -75.5t60.5 -60t81 -41t83 -15.5q23 0 49.5 5t50 15.5 t39 28.5t15.5 43l2 846h270v-172h-66v-680q0 -72 -25.5 -123t-65.5 -84t-90 -48t-99 -15q-70 0 -129.5 27.5t-104.5 62.5q-53 39 -96 90v-12v-19q-4 -76 -47 -107.5t-102 -35.5q-29 -2 -59.5 2t-59.5 12v178q41 4 52 23.5t13 38.5v366q0 43 20.5 81t46.5 71t46.5 59.5 t20.5 46.5q0 35 -23 35q-18 0 -39.5 -13.5t-50.5 -13.5q-23 0 -45.5 13.5t-41 38t-29.5 57.5t-11 70z" />
<glyph unicode="&#xe07;" horiz-adv-x="915" d="M23 1092h213l202 -648l49 -280l45 297l89 399q14 41 5.5 58.5t-55.5 17.5v154q37 2 72 4q29 2 57.5 2t44.5 -2q33 -6 56.5 -28t36 -51.5t13.5 -63t-7 -64.5l-236 -887h-241z" />
<glyph unicode="&#xe08;" horiz-adv-x="827" d="M25 985q39 31 90 55q43 20 105 38t140 18q109 0 190 -34t131 -88t67.5 -121t1.5 -132l-154 -721h-281l-135 438q-6 23 -22.5 39.5t-51.5 9.5l-45 170q51 16 99.5 24.5t87.5 0.5t67.5 -32.5t40.5 -74.5l72 -303l18 -174l15 148l86 493q4 16 3 47t-19.5 61t-57.5 52.5 t-113 22.5q-57 0 -98 -10.5t-69 -20.5q-33 -14 -58 -31z" />
<glyph unicode="&#xe09;" horiz-adv-x="993" d="M35 522v176q41 10 89 13.5t90 -7t69.5 -38t27.5 -76.5v-326q0 -51 42 -74.5t108 -23.5q39 0 75.5 15.5t65.5 41t46.5 60t17.5 75.5v461q-2 12 -7.5 28.5t-17.5 32t-34.5 27t-55.5 11.5h-254q-35 0 -62.5 -8.5t-48.5 -18.5q-23 -10 -41 -25l-104 125q20 27 57 49 q31 18 79 35t120 17h254q156 0 237.5 -82t81.5 -211v-559q2 -18 13.5 -37t52.5 -23v-178q-29 -10 -59.5 -14t-59.5 0q-59 4 -102 35.5t-47 107.5q0 2 -18.5 -18.5t-54.5 -47t-88 -48t-122 -21.5q-49 0 -98 15.5t-90 48t-67 84t-26 122.5v197q-2 23 -12 39t-57 20z" />
<glyph unicode="&#xe0a;" horiz-adv-x="897" d="M102 281v319q0 45 15.5 85t34 74t34 62.5t15.5 48.5q0 25 -14.5 34t-53.5 14v176q25 2 47 6q20 2 42 4t38 2q27 0 53.5 -13.5t47 -35t33 -52t12.5 -63.5q0 -55 -15.5 -101t-33 -88t-33 -82t-15.5 -79v-311q0 -51 35 -85t80 -34h41q45 0 80 33.5t35 85.5v313 q0 53 -25 77.5t-63 24.5h-82l63 170h16q45 0 67 35t22 86v121h206v-121q0 -72 -23.5 -123t-58.5 -86q37 -35 59.5 -81t22.5 -117v-299q0 -82 -29.5 -137.5t-75.5 -89.5t-103.5 -49t-110.5 -15h-41q-53 0 -110.5 15t-104.5 49t-77 89.5t-30 137.5z" />
<glyph unicode="&#xe0b;" horiz-adv-x="915" d="M14 1034l146 43v-10q4 -14 10 -25q10 -23 35 -22q16 0 29.5 11t25.5 24.5t25.5 25t31.5 11.5q20 0 42 -14.5t40.5 -37t29.5 -49t11 -53.5v-35q0 -51 -18.5 -93t-40 -81t-38.5 -76t-17 -75v-314q0 -51 35.5 -85t80.5 -34h39q47 0 82 34t35 85v314q0 53 -24.5 77.5 t-63.5 24.5h-72l72 170h16q37 0 53.5 34t16.5 87v121h207v-121q0 -72 -23.5 -123t-60.5 -86q37 -35 59.5 -81t22.5 -118l1 -23q1 -22 1 -54.5v-71.5v-72t-1 -56l-1 -22q0 -82 -30 -138t-76 -90t-102 -48.5t-112 -14.5h-39q-55 0 -111.5 14.5t-103.5 48.5t-76.5 90t-29.5 138 v324q0 43 20.5 86t46 82t46 69.5t20.5 51.5q0 35 -23 34q-20 0 -40.5 -13t-49.5 -13q-43 0 -85 35.5t-42 113.5z" />
<glyph unicode="&#xe0c;" horiz-adv-x="1458" d="M72 965l65 127h379q53 0 110.5 -15.5t104.5 -49.5t77 -90t30 -138v-430q0 -41 16 -76t44 -61.5t63.5 -42t74.5 -15.5q37 0 65.5 27.5t28.5 81.5v809h271v-170h-66v-662q0 -72 -20.5 -123t-52 -84t-72.5 -48t-82 -15q-70 0 -120 23.5t-84 51t-50 50t-16 20.5 q0 -63 -47.5 -101t-106.5 -38q-33 0 -54.5 4t-35.5 8q-16 6 -29 12v154q41 4 53.5 22.5t12.5 39.5v563q0 53 -35 86t-80 33h-229q4 -14 10 -33q4 -16 7 -38t3 -48v-563q2 -20 12.5 -37t55.5 -21v-176q-25 -4 -47 -8q-41 -6 -80 -6q-57 0 -101.5 46t-44.5 111v717 q-2 20 -6 41q-4 16 -9 33.5t-15 28.5z" />
<glyph unicode="&#xe0d;" horiz-adv-x="1458" d="M72 965l65 127h379q53 0 110.5 -15.5t104.5 -49.5t77 -90t30 -138v-531q0 -18 12 -35.5t31.5 -32t45 -22.5t52.5 -8t54.5 8t49 22.5t34.5 32t13 35.5v824h271v-170h-66v-666q-2 -55 -26.5 -98t-62.5 -74t-85 -50.5t-92 -27.5q-10 -29 -28.5 -48t-34.5 -34 q-23 -16 -43 -26h333v-172h-528l-66 127q33 0 63 14t53.5 36.5t39.5 50.5t23 56q-43 10 -87 30.5t-80 50.5t-58.5 71t-24.5 94v543q0 53 -35 86t-80 33h-229q4 -14 10 -33q4 -16 7 -38t3 -48v-561q2 -23 12.5 -39.5t55.5 -20.5v-176q-25 -4 -47 -6q-41 -6 -80 -6 q-57 0 -101.5 45t-44.5 110v717q-2 20 -6 41q-4 16 -9 33.5t-15 28.5z" />
<glyph unicode="&#xe0e;" horiz-adv-x="1042" d="M35 2v176q45 4 55 20.5t12 39.5v626q-2 20 -6 41q-4 16 -9 33.5t-15 28.5l65 127h471q55 0 111.5 -14.5t102.5 -48.5t77 -90t31 -138v-901q0 -59 -21.5 -105.5t-54.5 -78t-68.5 -48t-62.5 -16.5h-141l-93 98h-454v172h483l103 -104q29 0 51 8q18 8 34.5 23.5t16.5 50.5 v901q0 47 -35 84t-80 35h-321q4 -16 10 -35q4 -16 7 -38t3 -46v-330v-328q0 -66 -43 -110.5t-102 -44.5q-16 0 -38 1t-42 5q-23 2 -47 6z" />
<glyph unicode="&#xe0f;" horiz-adv-x="1042" d="M35 0v176q45 4 55 20.5t12 39.5v626q-2 20 -6 41q-4 16 -9 33.5t-15 28.5l65 127h471q68 -2 126.5 -20.5t101.5 -54.5t67.5 -90.5t26.5 -125.5v-901q0 -59 -21.5 -105.5t-54.5 -78t-68.5 -48t-62.5 -16.5h-141l-93 98h-16l-104 -98h-334v172h307l90 98h86l103 -104 q29 0 51 8q18 8 34.5 23.5t16.5 50.5l2 901q0 51 -36 85t-81 34h-319q4 -16 8 -35q4 -16 7 -38t3 -46v-330v-328q0 -66 -43 -110.5t-102 -44.5q-16 0 -38 1t-42 5q-23 2 -47 6z" />
<glyph unicode="&#xe10;" horiz-adv-x="825" d="M45 -170h180l101 119h184v-119q45 0 65.5 19.5t20.5 70.5v29h207v-29q0 -72 -22.5 -121t-61.5 -80.5t-92.5 -46t-116.5 -14.5h-123v172l-131 -172h-211v172zM49 829q0 74 36 127.5t91 86t122 48t128 15.5q63 0 120.5 -10.5t102.5 -22.5q53 -14 99 -31l-3 -139 q-55 10 -108 19q-47 8 -102.5 14t-102.5 6q-41 0 -79 -7t-67.5 -21.5t-47 -36t-17.5 -48.5h121q111 0 191.5 -29.5t130 -78.5t67 -111.5t-1.5 -128.5l-98 -483h-281l-94 309q-6 23 -22.5 40.5t-49.5 10.5l-47 170q51 16 100.5 24.5t89.5 0.5t69.5 -32.5t41.5 -74.5l25 -120 l18 -172l15 147l28 199q2 16 1 47t-17 60.5t-55 52t-111 22.5h-246z" />
<glyph unicode="&#xe11;" horiz-adv-x="1040" d="M-4 1049l145 45v-11q4 -14 11 -24q4 -10 12 -17.5t22 -7.5q16 0 29.5 11.5t26 24.5t26 24.5t31.5 11.5t38.5 -12.5t38 -33t30 -45t16.5 -48.5q39 57 104.5 100t122.5 43t106.5 -22.5t85.5 -59.5t56.5 -87t20.5 -105v-668h65v-170h-272v811q0 66 -39 91.5t-94 25.5 q-59 0 -108.5 -30t-85.5 -79t-56.5 -112.5t-20.5 -131.5v-286q0 -127 2 -287h-207v606q2 43 22.5 81t45.5 69.5t45.5 57.5t20.5 46q0 35 -23 35q-20 0 -40.5 -12.5t-49.5 -12.5q-23 0 -45.5 13.5t-41 37t-29.5 56.5t-11 72z" />
<glyph unicode="&#xe12;" horiz-adv-x="1560" d="M113 344v467q0 141 75.5 216t204.5 75h31q16 -20 35 -43q16 -20 35.5 -44t42.5 -50q20 27 39.5 50t35.5 44q18 23 35 43h31q129 0 204.5 -75t75.5 -216v-440q0 -80 51.5 -137.5t129.5 -57.5q37 0 65.5 27.5t28.5 81.5v809h270v-170h-65v-662q0 -72 -20.5 -123 t-53.5 -83.5t-74 -48t-82 -15.5q-68 0 -116 23.5t-78.5 51t-44 50t-13.5 20.5q0 -63 -45 -100t-104 -37q-61 0 -92 10q-16 6 -27 13v155q41 4 52.5 22.5t13.5 37.5v573q0 51 -15.5 85t-60.5 34h-31l-57 -72h-109l-57 72h-31q-45 0 -60.5 -34t-15.5 -85v-467q0 -47 17.5 -79 t45.5 -51t64.5 -26.5t77.5 -5.5l82 -155q-37 -12 -78 -19.5t-86 -7.5q-92 6 -164 45q-31 16 -60.5 41t-52 61.5t-36.5 85t-14 111.5z" />
<glyph unicode="&#xe13;" horiz-adv-x="1460" d="M74 967l65 127h379q55 0 111.5 -15.5t103.5 -49.5t77 -90t30 -138v-531q0 -51 35.5 -71.5t82.5 -20.5q27 0 58 15.5t56.5 42t43 61.5t17.5 76v721h272v-170h-68v-684q2 -18 14.5 -37t53.5 -23v-180q-29 -8 -59.5 -12t-59.5 -2t-55.5 11t-47 25.5t-33.5 43t-15 65.5 q0 2 -17.5 -19.5t-51.5 -48t-82 -48t-112 -21.5q-49 0 -92 15.5t-74.5 47t-51 81.5t-19.5 120h-2v543q0 51 -35 86t-80 33h-229q4 -14 10 -33q4 -16 7 -38t3 -48v-561q2 -23 13.5 -39.5t56.5 -20.5v-176q-25 -4 -47 -6q-20 -4 -42 -5t-38 -1q-59 0 -103.5 45t-44.5 110v717 q-2 20 -6 41q-4 16 -9 33.5t-15 28.5z" />
<glyph unicode="&#xe14;" horiz-adv-x="1107" d="M113 334v465q0 82 29.5 138t76.5 90t103.5 49.5t111.5 15.5h230q70 -2 127 -20.5t100 -55.5t67.5 -91.5t26.5 -125.5v-629h66v-170h-271v799q0 53 -34.5 86t-81.5 33h-230q-47 0 -82 -33t-35 -86v-465q0 -53 21.5 -87t56.5 -52.5t79 -21.5t91 3l76 -147 q-41 -16 -91 -27.5t-110 -11.5q-92 6 -164 45q-31 16 -60.5 40.5t-52 61.5t-36.5 85t-14 112z" />
<glyph unicode="&#xe15;" horiz-adv-x="1153" d="M113 338v469q0 70 24.5 124t66.5 91t98 56.5t120 19.5h31l122 -142l115 142h31q63 0 119.5 -19.5t98.5 -56.5t66.5 -91t24.5 -124v-635h66v-172h-273v807q0 51 -27.5 85t-74.5 34h-31l-57 -72h-123l-57 72h-31q-45 0 -74 -34t-29 -85v-469q0 -53 21.5 -87t56.5 -51.5 t79 -20.5t89 3l78 -147q-41 -16 -92 -28.5t-111 -12.5q-92 8 -164 47q-31 16 -60.5 42t-52 60.5t-36.5 82.5t-14 112z" />
<glyph unicode="&#xe16;" horiz-adv-x="1050" d="M72 965l65 127h471q68 -2 126.5 -20.5t101.5 -55.5t67.5 -91.5t26.5 -125.5l-2 -627h67v-172h-272v799q0 49 -35 85t-80 34h-321q4 -14 10 -33q4 -16 7 -38t3 -48v-561q2 -23 12.5 -39.5t55.5 -20.5v-176q-25 -4 -47 -6q-41 -6 -80 -6q-57 0 -101.5 45t-44.5 110v717 q-2 20 -6 41q-4 16 -9 33.5t-15 28.5z" />
<glyph unicode="&#xe17;" horiz-adv-x="1056" d="M37 903v178q61 18 119 17q59 -4 102 -37t47 -109v-24v-21q39 51 90 90q41 35 99.5 64t128.5 29q61 0 117.5 -24t99.5 -68t68.5 -105.5t25.5 -134.5v-590h65v-172h-272v762q0 31 -14.5 58.5t-39 47t-57 30.5t-69.5 11q-39 0 -81 -15.5t-78 -42t-58.5 -62t-22.5 -74.5v-711 h-205v844q-2 18 -13 36.5t-52 22.5z" />
<glyph unicode="&#xe18;" horiz-adv-x="1040" d="M66 829q0 76 39.5 128.5t100 85t131.5 48t132 15.5q86 0 155.5 -10.5t120.5 -22.5q59 -14 109 -31v-139q-63 12 -131 21q-57 8 -125 14t-129 6q-117 0 -175 -45t-58 -100h348q188 0 267 -79t79 -220v-207q0 -82 -30 -138.5t-77 -90t-103 -49t-112 -15.5h-469l-67 127 q10 10 15 26.5t9 32.5q4 20 6 43v328h207v-264q0 -27 -3 -48.5t-7 -37.5q-6 -18 -10 -33h319q47 0 82 29.5t35 89.5v227q0 14 -1 37t-14.5 44.5t-42 35.5t-83.5 14h-473z" />
<glyph unicode="&#xe19;" horiz-adv-x="1038" d="M33 899v178q41 10 89 12.5t90 -8t69.5 -38t27.5 -76.5v-695q0 -53 46 -78.5t108 -25.5q39 0 83 17.5t81 45t60.5 64.5t23.5 78v714h270v-169h-66v-678q2 -16 13.5 -36t52.5 -24v-178q-29 -8 -59.5 -12t-59.5 -2q-59 4 -102 35.5t-47 107.5q0 2 -25.5 -18.5t-71 -47 t-104.5 -48t-129 -21.5q-49 0 -98 15.5t-90 48t-67 84t-26 122.5v576q-2 20 -13 36.5t-56 20.5z" />
<glyph unicode="&#xe1a;" horiz-adv-x="1050" d="M35 915v177q25 2 47 6q20 4 41.5 6t38.5 2q57 0 101 -45t44 -111v-657q0 -27 -3 -48.5t-7 -37.5q-6 -18 -10 -33h321q45 0 80 33t35 86v799h270v-172h-65v-627q0 -82 -30 -138.5t-76 -90t-103 -49t-111 -15.5h-471l-65 127q10 10 15 26.5t9 32.5q4 20 6 43v629 q-2 20 -12 36.5t-55 20.5z" />
<glyph unicode="&#xe1b;" horiz-adv-x="1052" d="M35 915v177q25 2 47 6q20 4 41.5 6t38.5 2q59 0 102 -45t43 -111v-657q0 -27 -3 -48.5t-7 -37.5q-6 -18 -10 -33h321q45 0 81 33t36 86h-2v1223h252v-170h-47l2 -1053h-2q0 -82 -30 -138.5t-76 -90t-103 -49t-111 -15.5h-471l-65 127q10 10 15 26.5t9 32.5q4 20 6 43v629 q-2 20 -12 36.5t-55 20.5z" />
<glyph unicode="&#xe1c;" horiz-adv-x="1202" d="M113 0v952q0 66 44 111t101 45q16 0 37.5 -2t42.5 -6q23 -4 47 -6v-176q-45 -4 -55.5 -20.5t-12.5 -37.5v-534l209 505h162l176 -505v770h271v-170h-66v-926h-205l-264 662l-283 -662h-204z" />
<glyph unicode="&#xe1d;" horiz-adv-x="1191" d="M113 -2v952q0 66 44 111t101 45q16 0 37.5 -2t42.5 -6q23 -4 47 -6v-177q-45 -4 -55.5 -20t-12.5 -37v-534l209 505h162l176 -505v1192h271v-170h-66v-1348h-205l-264 661l-283 -661h-204z" />
<glyph unicode="&#xe1e;" horiz-adv-x="1202" d="M45 915v177q25 2 47 6q20 4 42 6t38 2q59 0 102 -45t43 -111v-565l201 651h139l207 -651v709h271v-170h-66v-926h-205l-272 786l-275 -786h-204v860q-2 20 -12.5 36.5t-55.5 20.5z" />
<glyph unicode="&#xe1f;" horiz-adv-x="1200" d="M45 918v176q25 2 47 6q20 4 42 6t38 2q57 0 101 -45t44 -111v-565l199 651h139l207 -651v1129h273v-173h-68v-1343h-205l-272 786l-273 -786h-204v860q-2 20 -12.5 36.5t-55.5 21.5z" />
<glyph unicode="&#xe20;" horiz-adv-x="1052" d="M35 -2v178q45 4 56 20.5t11 36.5v629l-1 12q-1 13 -4 30.5t-9 33.5t-16 27l67 127h469q55 0 111.5 -15.5t103.5 -49.5t77 -90t30 -138v-629h65v-170h-270v799q0 53 -35 86t-82 33h-319q4 -14 10 -33q4 -16 7 -38t3 -48v-658q0 -66 -44 -110.5t-103 -44.5q-16 0 -38 1 t-42 5q-23 2 -47 6z" />
<glyph unicode="&#xe21;" horiz-adv-x="1036" d="M33 924v176q25 2 47 6q20 4 41.5 6t38.5 2q59 0 103 -45t44 -111v-583q0 -41 23.5 -77t60.5 -61.5t80 -41t82 -15.5q25 0 51.5 5t50 16.5t39 29t15.5 43.5v824h270v-170h-66v-662q0 -72 -25.5 -123t-65.5 -83.5t-90 -48t-99 -15.5q-68 0 -128.5 21.5t-104.5 48t-69.5 47 t-25.5 18.5q-4 -76 -48 -107.5t-103 -35.5q-29 -2 -60 2t-59 12v178q41 4 53 23.5t14 38.5v624q-2 20 -12 37t-57 21z" />
<glyph unicode="&#xe22;" horiz-adv-x="1050" d="M102 270v136q0 78 30 127t73 79q-43 33 -73 74t-30 127v133q0 63 43 109.5t103 46.5q16 0 37.5 -2t42.5 -6q23 -4 47 -7v-176q-45 0 -55.5 -14t-12.5 -35v-49q0 -76 54.5 -99.5t177.5 -27.5h16v-147h-20q-117 -2 -170.5 -33t-57.5 -100v-136q6 -45 40 -70.5t75 -25.5h186 q45 0 68.5 18.5t34.5 40.5q12 25 12 60v799h272v-172h-67v-627q0 -82 -30 -138.5t-76 -90t-103 -49t-111 -15.5h-186q-53 0 -109.5 15.5t-102.5 47t-77 83t-31 124.5z" />
<glyph unicode="&#xe23;" horiz-adv-x="802" d="M10 825q0 76 36 128.5t90 85t121 48t128 15.5q63 0 120.5 -10.5t102.5 -22.5q53 -14 99 -31v-137q-53 10 -109 19q-47 8 -103.5 14t-103.5 6q-41 0 -79 -12.5t-66.5 -33t-47 -47t-18.5 -52.5h121q111 0 185.5 -23.5t119.5 -64.5t64.5 -100.5t19.5 -129.5v-147 q0 -86 -27.5 -149.5t-76.5 -103.5t-114.5 -59.5t-141.5 -19.5h-51v176h63q57 0 99 43t42 113v168q0 14 -3 39.5t-20.5 50t-54 42t-104.5 17.5h-246z" />
<glyph unicode="&#xe24;" horiz-adv-x="1042" d="M72 965l67 127h469q70 -2 127.5 -20.5t100.5 -55.5t67.5 -91.5t26.5 -125.5v-975h65v-172h-270v1147q0 53 -35 86t-82 33h-319q4 -14 8 -33q4 -16 7 -38t3 -48v-88q0 -41 1 -90.5t1 -102.5v-280q0 -23 11.5 -39.5t56.5 -20.5v-176q-25 -4 -47 -6q-20 -4 -42 -5t-38 -1 q-59 0 -103.5 45t-44.5 110v717q-2 20 -6 41q-4 16 -9 33.5t-15 28.5z" />
<glyph unicode="&#xe25;" horiz-adv-x="1015" d="M37 332q0 86 34.5 152.5t91 110.5t128 66.5t145.5 22.5q86 0 156 -30.5t106 -69.5v215q0 33 -12 59q-10 23 -33.5 41.5t-68.5 18.5h-201q-41 0 -71.5 -11.5t-53.5 -23.5q-25 -14 -43 -33l-100 127q49 59 123.5 86t144.5 27h201q164 0 241.5 -90.5t77.5 -247.5v-752h-205 v317q0 35 -18 71t-51 63.5t-80 45t-107 17.5q-53 0 -91 -15.5t-61.5 -41t-34.5 -58t-11 -67.5q0 -70 42 -113t99 -43h64v-176h-52q-76 0 -141.5 19.5t-114.5 59.5t-76.5 103.5t-27.5 149.5z" />
<glyph unicode="&#xe26;" horiz-adv-x="1052" d="M35 6v178q45 4 55 20.5t12 37.5v628q-2 20 -6 41q-4 16 -9 34t-15 28l65 127h471q55 0 111.5 -15.5t102.5 -50.5t77 -91t31 -136l-2 -975h67v-170h-272v1145q0 47 -33 83t-82 36h-321q4 -14 10 -33q4 -16 7 -37.5t3 -48.5v-657q0 -66 -43 -111t-102 -45q-16 0 -38 1 t-42 5q-23 2 -47 6z" />
<glyph unicode="&#xe27;" horiz-adv-x="913" d="M98 25l76 147q125 -23 223 6q41 12 81 37t72 68t51.5 107.5t19.5 154.5t-19.5 154.5t-51.5 107.5t-72 68.5t-81 37.5q-98 29 -223 7l-76 145q20 12 56 20q29 8 72 14.5t102 6.5q39 0 91 -9.5t107.5 -33t109.5 -64.5t96 -103t68.5 -148t26.5 -203q0 -174 -55 -283.5 t-134 -171t-164 -84t-146 -22.5t-104.5 6t-71.5 14q-33 8 -54 21z" />
<glyph unicode="&#xe28;" horiz-adv-x="1097" d="M113 0v801q0 80 29.5 135t75.5 90t103.5 50.5t112.5 15.5h232q39 0 79.5 -8.5t77.5 -24.5q12 49 37 95t66 79l127 -100q-20 -18 -35 -43q-12 -23 -22.5 -53.5t-10.5 -69.5v-795h66v-172h-271v801q0 51 -34.5 85t-79.5 34h-232q-49 0 -82 -36t-33 -83v-168q49 18 84 24 q20 4 37 5q59 0 110.5 -12.5t92.5 -28.5l-78 -148q-45 6 -89 3t-79 -21.5t-56.5 -52t-21.5 -87.5v-315h-206z" />
<glyph unicode="&#xe29;" horiz-adv-x="1060" d="M35 915v177q25 2 47 6q20 2 41.5 4t38.5 2q57 0 101 -45t44 -111v-657q0 -27 -3 -47.5t-7 -36.5q-6 -18 -10 -35h321q45 0 80 34t35 85v301h-29q-63 0 -128.5 20.5t-112.5 67.5l163 115q31 -31 78 -31h29v328h205v-328h76v-172h-76v-301q0 -82 -30 -138.5t-76 -90 t-103 -48t-111 -14.5h-471l-65 127q10 10 15 26.5t9 32.5q4 20 6 43v627q-2 23 -12 39t-55 20z" />
<glyph unicode="&#xe2a;" horiz-adv-x="1030" d="M51 332q0 86 35 152.5t91 110.5t128 66.5t146 22.5q86 0 155.5 -30.5t106.5 -69.5v215q0 33 -13 59q-10 23 -33.5 41.5t-68.5 18.5h-201q-41 0 -71.5 -11.5t-53.5 -23.5q-25 -14 -43 -33l-100 127q49 59 124 86t144 27h201q90 0 158 -31q10 49 34.5 95t65.5 79l127 -100 q-18 -20 -33 -48q-12 -23 -22 -58.5t-10 -82.5v-944h-205v317q0 35 -18.5 71t-51.5 63.5t-80 45t-106 17.5q-53 0 -91 -15.5t-62.5 -41t-36 -58t-11.5 -67.5q0 -70 43 -113t100 -43h64v-176h-51q-76 0 -141.5 19.5t-115 59.5t-77 103.5t-27.5 149.5z" />
<glyph unicode="&#xe2b;" horiz-adv-x="1069" d="M47 903v178q59 20 119 17q59 -4 103 -37t48 -109v-129l263 90q59 33 83.5 71t24.5 103h193v-20q0 -29 -4.5 -66.5t-15.5 -74.5t-29.5 -67t-47.5 -44l-98 -43q72 -29 129 -67q49 -35 90 -85.5t41 -115.5v-336h66v-172h-273v508q0 47 -28.5 85t-63.5 66q-41 33 -92 58 l-238 -86v-627h-204v844q-2 18 -13.5 36.5t-52.5 22.5z" />
<glyph unicode="&#xe2c;" horiz-adv-x="1204" d="M55 918v176q25 2 47 6q20 4 42 6t38 2q59 0 103.5 -45t44.5 -111v-559l190 539h148l206 -539v500q0 53 -34.5 87t-79.5 34h-39v2v170h39q45 0 79.5 33.5t34.5 87.5v14h205v-14q0 -70 -22.5 -121t-57.5 -86q35 -33 56.5 -82t23.5 -115v-903h-205l-280 741l-264 -741h-207 v860q0 20 -11.5 36.5t-56.5 21.5z" />
<glyph unicode="&#xe2d;" horiz-adv-x="1009" d="M59 348q0 86 28 146.5t76 98.5t113.5 55.5t141.5 17.5v-177q-43 -6 -78 -22q-29 -14 -52.5 -43t-23.5 -76q0 -76 34 -125t99 -49h150q47 0 75.5 18.5t44 43t20.5 49t5 39.5v471q0 53 -30.5 85.5t-83.5 32.5h-234q-37 0 -66.5 -7t-50.5 -15q-23 -10 -41 -23l-77 115 q43 53 117.5 78.5t152.5 25.5h199q55 0 111 -15t102.5 -49t76 -90t29.5 -138v-471q-6 -92 -43 -162q-33 -61 -104.5 -111.5t-202.5 -50.5h-150q-78 0 -139 27.5t-106.5 75t-69 110.5t-23.5 135z" />
<glyph unicode="&#xe2e;" horiz-adv-x="1013" d="M63 307q0 86 31 143.5t81 91t114.5 48t134.5 14.5v-176q-43 0 -78 -12q-29 -10 -52.5 -36t-23.5 -73q0 -68 39 -100.5t90 -32.5h154q47 0 75.5 18.5t44 43t20.5 49t5 39.5v368l7 6q4 4 14 21q4 4 4 11t2 11q0 6 2 11q-23 -27 -57 -50q-29 -18 -73 -33.5t-101 -15.5h-54 q-47 0 -101 12.5t-100 38t-77 66.5t-31 98t27.5 98.5t73 68t100.5 39.5t108 13h142q18 0 37.5 -2t37.5 -6q12 49 37 95.5t66 78.5l127 -100q-16 -16 -31 -39q-12 -20 -22.5 -49t-12.5 -64q35 -35 56.5 -85t21.5 -121v-471q-6 -92 -43 -162q-33 -61 -103.5 -111.5 t-201.5 -50.5h-154q-154 0 -243.5 82t-92.5 225zM295 870q0 -35 36 -47t77 -12h106q47 0 87 29.5t40 68.5q-10 2 -28.5 3t-28.5 1h-176q-41 0 -77 -5t-36 -38z" />
<glyph unicode="&#xe2f;" horiz-adv-x="1032" d="M39 1094h207q0 -82 8 -144.5t28.5 -104.5t56.5 -63.5t91 -21.5q82 0 136.5 44t88.5 97q39 61 62 141v50h203v-1090h-203v705l14 88q-35 -59 -84 -107q-43 -41 -105.5 -73.5t-148.5 -32.5q-70 0 -134 26.5t-113.5 88t-78 158.5t-28.5 239z" />
<glyph unicode="&#xe30;" horiz-adv-x="696" d="M98 272q0 16 1 38t5 42q2 23 7 47h178q4 -45 20.5 -55t36.5 -12h248v-135q-37 -18 -81 -29.5t-89 -18t-89 -8.5t-81 -2q-66 0 -111 37t-45 96zM98 862q0 16 1 38t5 42q2 23 7 47h178q4 -45 20.5 -55t36.5 -12h248v-136q-37 -18 -81 -29.5t-89 -17.5t-89 -8t-81 -2 q-66 0 -111 37t-45 96z" />
<glyph unicode="&#xe31;" d="M-774 1501l166 35q0 -35 26.5 -66.5t73.5 -31.5h469v-152q-100 -6 -197 -12q-82 -4 -169 -8t-144 -4q-106 0 -165.5 67.5t-59.5 171.5z" />
<glyph unicode="&#x2019;" d="M-774 1501l166 35q0 -35 26.5 -66.5t73.5 -31.5h469v-152q-100 -6 -197 -12q-82 -4 -169 -8t-144 -4q-106 0 -165.5 67.5t-59.5 171.5z" />
<glyph unicode="&#xe32;" horiz-adv-x="702" d="M14 1067q20 8 51 16.5t65 13.5t68.5 8t63.5 3q92 -8 164 -47q31 -16 59.5 -42t52 -61.5t38 -84t14.5 -109.5v-764h-205v764q0 109 -82 150.5t-227 7.5z" />
<glyph unicode="&#xe33;" horiz-adv-x="716" d="M-674 1395q0 94 71 139t173 45t173 -46t71 -138q0 -53 -19.5 -88t-52.5 -55.5t-77 -30t-95 -9.5t-95 9.5t-77 30t-52.5 55t-19.5 88.5zM-510 1395q0 -41 23.5 -60.5t56.5 -19.5t55.5 19.5t22.5 60.5t-22.5 61.5t-55.5 20.5t-56.5 -20.5t-23.5 -61.5zM29 1067 q20 8 51 16.5t64.5 13.5t68.5 8t63 3q92 -8 164 -47q31 -16 59.5 -42t52 -61.5t38 -84t14.5 -109.5v-764h-205v764q0 109 -81.5 150.5t-227.5 7.5z" />
<glyph unicode="&#xe34;" d="M-840 1364q31 45 80 71.5t115 26.5q63 0 155.5 -5t178.5 -9q100 -6 207 -12v-166h-498q-16 0 -33.5 -5t-34.5 -12q-18 -8 -37 -16z" />
<glyph unicode="&#x201d;" d="M-840 1364q31 45 80 71.5t115 26.5q63 0 155.5 -5t178.5 -9q100 -6 207 -12v-166h-498q-16 0 -33.5 -5t-34.5 -12q-18 -8 -37 -16z" />
<glyph unicode="&#xe35;" d="M-866 1362q31 45 80 71.5t114 26.5q37 0 100.5 -2t122.5 -6q70 -4 150 -8v102h170v-278h-500q-16 0 -33.5 -5.5t-33.5 -11.5q-18 -8 -37 -16z" />
<glyph unicode="&#x2022;" d="M-866 1362q31 45 80 71.5t114 26.5q37 0 100.5 -2t122.5 -6q70 -4 150 -8v102h170v-278h-500q-16 0 -33.5 -5.5t-33.5 -11.5q-18 -8 -37 -16z" />
<glyph unicode="&#xe36;" d="M-874 1348q33 45 81 71.5t113 26.5l131 -4q10 -14 19 -25q8 -10 17 -17t19 -9q-23 16 -34 49t-11 61q0 84 62 138.5t158 54.5q33 0 67.5 -11.5t62 -37t46 -66.5t18.5 -98v-228h-510q-16 0 -33.5 -5t-33.5 -11q-18 -8 -37 -16zM-395 1505q0 -29 23.5 -53.5t70.5 -24.5h45 v64q0 31 -16.5 57.5t-46.5 26.5q-33 0 -54.5 -18.5t-21.5 -51.5z" />
<glyph unicode="&#x2013;" d="M-874 1348q33 45 81 71.5t113 26.5l131 -4q10 -14 19 -25q8 -10 17 -17t19 -9q-23 16 -34 49t-11 61q0 84 62 138.5t158 54.5q33 0 67.5 -11.5t62 -37t46 -66.5t18.5 -98v-228h-510q-16 0 -33.5 -5t-33.5 -11q-18 -8 -37 -16zM-395 1505q0 -29 23.5 -53.5t70.5 -24.5h45 v64q0 31 -16.5 57.5t-46.5 26.5q-33 0 -54.5 -18.5t-21.5 -51.5z" />
<glyph unicode="&#xe37;" d="M-842 1350q33 45 82 70.5t113 25.5q16 0 44 -1t52 -1q29 -2 59 -2v155h156l14 -163l56 -4l14 167h156v-344h-506q-16 0 -33.5 -5t-34.5 -11q-18 -8 -37 -16z" />
<glyph unicode="&#x2014;" d="M-842 1350q33 45 82 70.5t113 25.5q16 0 44 -1t52 -1q29 -2 59 -2v155h156l14 -163l56 -4l14 167h156v-344h-506q-16 0 -33.5 -5t-34.5 -11q-18 -8 -37 -16z" />
<glyph unicode="&#xe38;" d="M-369 -147q25 2 47 6q20 2 42 4t38 2q57 0 101.5 -45t44.5 -111v-305h-205v213q-2 23 -12.5 38t-55.5 19v179z" />
<glyph unicode="&#xe39;" d="M-748 -168q53 16 101.5 23.5t88.5 0t69.5 -33t42.5 -74.5l51 -240l78 338h215l-152 -430h-281l-94 195q-14 27 -26.5 41t-44.5 8z" />
<glyph unicode="&#xe3a;" d="M-313 -256q0 53 35.5 90t89.5 37q53 0 90 -37t37 -90t-37 -90t-90 -37t-89 37t-36 90z" />
<glyph unicode="&#xe3f;" horiz-adv-x="1146" d="M72 1278l67 125h340v115h113v-115h8q82 0 152.5 -28.5t124 -78t84 -117t30.5 -145.5t-31.5 -146.5t-85.5 -117.5q78 -45 135.5 -126t57.5 -216q0 -113 -45 -187.5t-114.5 -121.5t-153.5 -68.5t-162 -27.5v-93h-113v88q-74 2 -140.5 6.5t-119.5 10.5q-61 6 -115 14h-2 v1125q-2 23 -6 43q-4 16 -9 33.5t-15 27.5zM289 1231q4 -16 8 -35q4 -16 7 -37.5t3 -46.5v-78q0 -37 1 -87t1 -109h170v393h-190zM309 207q27 -4 56 -6q25 -4 54.5 -5t59.5 -3v473h-170v-459zM592 195q41 4 88 16t88 38.5t67.5 69.5t26.5 109q0 80 -27.5 127t-66.5 71.5 t-79 32t-64 7.5h-33v-471zM592 838h22q72 6 124.5 59t52.5 137q0 43 -15.5 80t-41 62.5t-60.5 40t-74 14.5h-8v-393z" />
<glyph unicode="&#xe40;" horiz-adv-x="430" d="M102 176v930h205v-866q2 -23 13.5 -39.5t56.5 -20.5v-176q-23 -4 -45 -6q-41 -6 -84 -6q-78 0 -112 46t-34 138z" />
<glyph unicode="&#xe41;" horiz-adv-x="868" d="M102 170v930h207v-867q2 -23 13.5 -39t56.5 -20v-176q-23 -4 -45 -6q-20 -4 -43 -5t-41 -1q-80 0 -114 46t-34 138zM539 170v930h206v-867q2 -23 12.5 -39t57.5 -20v-176q-23 -4 -45 -6q-20 -4 -42.5 -5t-41.5 -1q-80 0 -113.5 46t-33.5 138z" />
<glyph unicode="&#xe42;" horiz-adv-x="626" d="M-25 1397q0 61 14.5 117.5t44 99.5t78 67.5t115.5 24.5q63 0 124 -5t108 -9q55 -6 104 -13v-139h-291q-63 0 -87.5 -28.5t-24.5 -75.5h35q125 0 191.5 -59.5t66.5 -180.5v-960q2 -20 12 -37t55 -21v-176q-25 -4 -47 -8q-41 -6 -80 -6q-57 0 -101 46t-44 111v1053 q0 90 -90 90h-123z" />
<glyph unicode="&#xe43;" horiz-adv-x="565" d="M-37 1348v67q0 82 28.5 138.5t71.5 90t94.5 48t94.5 14.5h10q53 0 107.5 -15.5t98.5 -47t71.5 -83t27.5 -122.5q0 -59 -27.5 -107.5t-60.5 -91.5t-60.5 -81t-27.5 -75v-847q2 -20 13.5 -37t56.5 -21v-176q-25 -4 -47 -8q-20 -4 -42 -5t-38 -1q-59 0 -103.5 46t-44.5 111 v938q0 49 30 93.5t65.5 84t65.5 77.5t30 77q0 59 -35 89t-80 30h-10q-45 0 -88 -34t-43 -85v-67h-158z" />
<glyph unicode="&#xe44;" horiz-adv-x="522" d="M-53 1595v123q53 -14 106 -22q43 -10 90 -16.5t76 -6.5q10 0 28.5 2t39 7.5t41 11.5t34.5 16h166l11 -176q0 -51 -30 -97t-65.5 -88t-65.5 -78t-30 -69v-966q2 -20 13.5 -37t56.5 -21v-176q-25 -4 -47 -8q-20 -4 -42 -5t-38 -1q-59 0 -103.5 46t-44.5 111v1057 q0 47 37 92t81 88t81 84t37 80q-31 -12 -60 -20q-25 -8 -51 -13.5t-49 -5.5q-49 0 -97 13.5t-87 29.5q-45 20 -88 45z" />
<glyph unicode="&#xe45;" horiz-adv-x="757" d="M-90 995q33 29 86 52q45 18 112.5 34.5t161.5 16.5q104 -8 187 -47q35 -16 68.5 -42t60 -62t43 -84t16.5 -109v-1114h-205v1114q0 33 -14 63.5t-39 55t-57.5 39t-71.5 14.5q-72 0 -124 -11.5t-87 -23.5q-39 -14 -67 -33z" />
<glyph unicode="&#xe46;" horiz-adv-x="1085" d="M55 776v12q0 72 24.5 126.5t66.5 91t98.5 56t120.5 19.5h30l121 -141l117 141h31q63 0 119.5 -19.5t98.5 -56t66.5 -91t24.5 -126.5v-985h63v-170h-270v1155q0 51 -28.5 85t-73.5 34h-31l-58 -71h-122l-58 71h-30q-47 0 -76 -33.5t-29 -85.5v-12q0 -74 40 -92t97 -12 v-172h-14q-20 0 -74.5 6t-111 33.5t-99.5 83t-43 153.5z" />
<glyph unicode="&#xe47;" d="M-893 1305v151q0 82 53.5 130t145.5 48h461v-159h-443q-25 0 -34 -6.5t-9 -34.5v-86q0 -16 5 -20.5t18 -4.5l57 107h115q0 -49 20.5 -77t54.5 -28q16 0 26.5 10.5t14.5 22.5q6 14 5 33v39h172q2 -10 3 -18.5t1 -20.5q0 -45 -17.5 -78t-47.5 -55.5t-66.5 -34t-73.5 -11.5 q-59 0 -92 25t-49 53q-20 35 -25 78l-86 -158q-123 0 -166 20.5t-43 74.5z" />
<glyph unicode="&#x201c;" d="M-893 1305v151q0 82 53.5 130t145.5 48h461v-159h-443q-25 0 -34 -6.5t-9 -34.5v-86q0 -16 5 -20.5t18 -4.5l57 107h115q0 -49 20.5 -77t54.5 -28q16 0 26.5 10.5t14.5 22.5q6 14 5 33v39h172q2 -10 3 -18.5t1 -20.5q0 -45 -17.5 -78t-47.5 -55.5t-66.5 -34t-73.5 -11.5 q-59 0 -92 25t-49 53q-20 35 -25 78l-86 -158q-123 0 -166 20.5t-43 74.5z" />
<glyph unicode="&#xe49;" horiz-adv-x="2410" d="M162 1077q0 94 29.5 161t75.5 107.5t101.5 60t106.5 19.5q61 0 128 -27.5t114 -86.5q29 -27 74 -45.5t110 -18.5q72 0 125 22.5t86 53.5l39 63h205l-848 -1390h-205l678 1114q-37 -6 -80 -6q-63 0 -115 12q2 -10 2 -19.5v-19.5q0 -94 -29.5 -158.5t-75.5 -105.5 t-101.5 -59.5t-106.5 -18.5t-106.5 18.5t-101.5 59.5t-75.5 105.5t-29.5 158.5zM307 1079q0 -66 19.5 -106.5t46 -63t55.5 -30t47 -7.5t47 7.5t56.5 30t47 63.5t19.5 106q0 66 -19.5 107t-47 63.5t-56 30.5t-47.5 8q-18 0 -47 -8t-55.5 -30.5t-46 -63.5t-19.5 -107zM909 332 q0 94 30 159.5t75 106.5t100.5 60.5t106.5 19.5t106 -19.5t101.5 -60.5t76 -106.5t29.5 -159.5t-29.5 -158.5t-76 -105.5t-101.5 -59.5t-106 -18.5t-105.5 18.5t-100.5 59.5t-76 105.5t-30 158.5zM1053 332q0 -66 19.5 -107t46 -62.5t55.5 -28.5t47 -7t46.5 7t56.5 28.5 t47.5 62.5t19.5 107t-19.5 106.5t-47.5 63t-56.5 31t-46.5 8.5t-47 -8.5t-55.5 -31t-46 -63.5t-19.5 -106zM1608 332q0 94 29.5 159.5t75.5 106.5t101.5 60.5t106.5 19.5t106.5 -19.5t101.5 -60.5t75.5 -106.5t29.5 -159.5t-29.5 -158.5t-75.5 -105.5t-101.5 -59.5 t-106.5 -18.5t-106.5 18.5t-101.5 59.5t-75.5 105.5t-29.5 158.5zM1751 332q0 -66 19.5 -107t47 -62.5t56.5 -28.5t47 -7t47 7t56.5 28.5t47 62.5t19.5 107t-19.5 106.5t-47 63t-56.5 31t-47 8.5t-47 -8.5t-56.5 -31t-47 -63.5t-19.5 -106z" />
<glyph unicode="&#x2122;" horiz-adv-x="2410" d="M162 1077q0 94 29.5 161t75.5 107.5t101.5 60t106.5 19.5q61 0 128 -27.5t114 -86.5q29 -27 74 -45.5t110 -18.5q72 0 125 22.5t86 53.5l39 63h205l-848 -1390h-205l678 1114q-37 -6 -80 -6q-63 0 -115 12q2 -10 2 -19.5v-19.5q0 -94 -29.5 -158.5t-75.5 -105.5 t-101.5 -59.5t-106.5 -18.5t-106.5 18.5t-101.5 59.5t-75.5 105.5t-29.5 158.5zM307 1079q0 -66 19.5 -106.5t46 -63t55.5 -30t47 -7.5t47 7.5t56.5 30t47 63.5t19.5 106q0 66 -19.5 107t-47 63.5t-56 30.5t-47.5 8q-18 0 -47 -8t-55.5 -30.5t-46 -63.5t-19.5 -107zM909 332 q0 94 30 159.5t75 106.5t100.5 60.5t106.5 19.5t106 -19.5t101.5 -60.5t76 -106.5t29.5 -159.5t-29.5 -158.5t-76 -105.5t-101.5 -59.5t-106 -18.5t-105.5 18.5t-100.5 59.5t-76 105.5t-30 158.5zM1053 332q0 -66 19.5 -107t46 -62.5t55.5 -28.5t47 -7t46.5 7t56.5 28.5 t47.5 62.5t19.5 107t-19.5 106.5t-47.5 63t-56.5 31t-46.5 8.5t-47 -8.5t-55.5 -31t-46 -63.5t-19.5 -106zM1608 332q0 94 29.5 159.5t75.5 106.5t101.5 60.5t106.5 19.5t106.5 -19.5t101.5 -60.5t75.5 -106.5t29.5 -159.5t-29.5 -158.5t-75.5 -105.5t-101.5 -59.5 t-106.5 -18.5t-106.5 18.5t-101.5 59.5t-75.5 105.5t-29.5 158.5zM1751 332q0 -66 19.5 -107t47 -62.5t56.5 -28.5t47 -7t47 7t56.5 28.5t47 62.5t19.5 107t-19.5 106.5t-47 63t-56.5 31t-47 8.5t-47 -8.5t-56.5 -31t-47 -63.5t-19.5 -106z" />
<glyph unicode="&#x2030;" horiz-adv-x="2410" d="M162 1077q0 94 29.5 161t75.5 107.5t101.5 60t106.5 19.5q61 0 128 -27.5t114 -86.5q29 -27 74 -45.5t110 -18.5q72 0 125 22.5t86 53.5l39 63h205l-848 -1390h-205l678 1114q-37 -6 -80 -6q-63 0 -115 12q2 -10 2 -19.5v-19.5q0 -94 -29.5 -158.5t-75.5 -105.5 t-101.5 -59.5t-106.5 -18.5t-106.5 18.5t-101.5 59.5t-75.5 105.5t-29.5 158.5zM307 1079q0 -66 19.5 -106.5t46 -63t55.5 -30t47 -7.5t47 7.5t56.5 30t47 63.5t19.5 106q0 66 -19.5 107t-47 63.5t-56 30.5t-47.5 8q-18 0 -47 -8t-55.5 -30.5t-46 -63.5t-19.5 -107zM909 332 q0 94 30 159.5t75 106.5t100.5 60.5t106.5 19.5t106 -19.5t101.5 -60.5t76 -106.5t29.5 -159.5t-29.5 -158.5t-76 -105.5t-101.5 -59.5t-106 -18.5t-105.5 18.5t-100.5 59.5t-76 105.5t-30 158.5zM1053 332q0 -66 19.5 -107t46 -62.5t55.5 -28.5t47 -7t46.5 7t56.5 28.5 t47.5 62.5t19.5 107t-19.5 106.5t-47.5 63t-56.5 31t-46.5 8.5t-47 -8.5t-55.5 -31t-46 -63.5t-19.5 -106zM1608 332q0 94 29.5 159.5t75.5 106.5t101.5 60.5t106.5 19.5t106.5 -19.5t101.5 -60.5t75.5 -106.5t29.5 -159.5t-29.5 -158.5t-75.5 -105.5t-101.5 -59.5 t-106.5 -18.5t-106.5 18.5t-101.5 59.5t-75.5 105.5t-29.5 158.5zM1751 332q0 -66 19.5 -107t47 -62.5t56.5 -28.5t47 -7t47 7t56.5 28.5t47 62.5t19.5 107t-19.5 106.5t-47 63t-56.5 31t-47 8.5t-47 -8.5t-56.5 -31t-47 -63.5t-19.5 -106z" />
<glyph unicode="&#x201e;" horiz-adv-x="2410" d="M162 1077q0 94 29.5 161t75.5 107.5t101.5 60t106.5 19.5q61 0 128 -27.5t114 -86.5q29 -27 74 -45.5t110 -18.5q72 0 125 22.5t86 53.5l39 63h205l-848 -1390h-205l678 1114q-37 -6 -80 -6q-63 0 -115 12q2 -10 2 -19.5v-19.5q0 -94 -29.5 -158.5t-75.5 -105.5 t-101.5 -59.5t-106.5 -18.5t-106.5 18.5t-101.5 59.5t-75.5 105.5t-29.5 158.5zM307 1079q0 -66 19.5 -106.5t46 -63t55.5 -30t47 -7.5t47 7.5t56.5 30t47 63.5t19.5 106q0 66 -19.5 107t-47 63.5t-56 30.5t-47.5 8q-18 0 -47 -8t-55.5 -30.5t-46 -63.5t-19.5 -107zM909 332 q0 94 30 159.5t75 106.5t100.5 60.5t106.5 19.5t106 -19.5t101.5 -60.5t76 -106.5t29.5 -159.5t-29.5 -158.5t-76 -105.5t-101.5 -59.5t-106 -18.5t-105.5 18.5t-100.5 59.5t-76 105.5t-30 158.5zM1053 332q0 -66 19.5 -107t46 -62.5t55.5 -28.5t47 -7t46.5 7t56.5 28.5 t47.5 62.5t19.5 107t-19.5 106.5t-47.5 63t-56.5 31t-46.5 8.5t-47 -8.5t-55.5 -31t-46 -63.5t-19.5 -106zM1608 332q0 94 29.5 159.5t75.5 106.5t101.5 60.5t106.5 19.5t106.5 -19.5t101.5 -60.5t75.5 -106.5t29.5 -159.5t-29.5 -158.5t-75.5 -105.5t-101.5 -59.5 t-106.5 -18.5t-106.5 18.5t-101.5 59.5t-75.5 105.5t-29.5 158.5zM1751 332q0 -66 19.5 -107t47 -62.5t56.5 -28.5t47 -7t47 7t56.5 28.5t47 62.5t19.5 107t-19.5 106.5t-47 63t-56.5 31t-47 8.5t-47 -8.5t-56.5 -31t-47 -63.5t-19.5 -106z" />
<glyph unicode="&#xe4b;" horiz-adv-x="958" d="M94 182v213l592 312l-592 313v213l811 -406v-241z" />
<glyph unicode="&#x203a;" horiz-adv-x="958" d="M94 182v213l592 312l-592 313v213l811 -406v-241z" />
<glyph unicode="&#x2039;" horiz-adv-x="958" d="M94 182v213l592 312l-592 313v213l811 -406v-241z" />
<glyph unicode="&#x2020;" horiz-adv-x="958" d="M94 182v213l592 312l-592 313v213l811 -406v-241z" />
<glyph unicode="&#xe4e;" d="M-831 1501v53q0 43 12 82t39.5 70t70.5 48.5t107 17.5h59l76 -89q0 51 8 98.5t33 84.5t68 58.5t112 25.5v-156q-33 0 -52 -25.5t-28.5 -63.5t-12.5 -83t-3 -86h-141l-60 61h-65q-10 0 -22.5 -6t-12.5 -41v-49q0 -49 40 -59t97 -4v-170h-57q-12 0 -55.5 3t-90.5 24.5 t-84.5 68.5t-37.5 137z" />
<glyph unicode="&#xe4f;" horiz-adv-x="921" d="M115 334q0 143 100 244.5t246 101.5q141 0 243.5 -102.5t102.5 -243.5q0 -145 -101.5 -245.5t-244.5 -100.5q-145 0 -245.5 100t-100.5 246zM186 334q0 -117 79 -197t196 -80q115 0 194.5 81t79.5 196t-80 194.5t-194 79.5q-115 0 -195 -79.5t-80 -194.5zM258 334 q0 84 59.5 143.5t143.5 59.5t143.5 -59.5t59.5 -143.5t-59.5 -144.5t-143.5 -60.5t-143.5 60.5t-59.5 144.5z" />
<glyph unicode="&#xe50;" horiz-adv-x="1236" d="M72 487q0 119 47 213.5t122.5 161t173 101t197.5 34.5t200.5 -35.5t178.5 -102t127 -161t49 -211.5t-47 -212t-123.5 -160.5t-175 -101.5t-203.5 -36q-104 0 -202.5 35t-175 101.5t-122.5 161t-46 212.5zM276 487q0 -68 27 -128t73 -106t108 -73.5t134 -27.5t134.5 26.5 t108.5 72.5t73 107.5t27 128.5q0 68 -29 127.5t-77 104.5t-110.5 71.5t-132.5 26.5t-130 -26.5t-106 -71.5t-73 -105.5t-27 -126.5z" />
<glyph unicode="&#xe51;" horiz-adv-x="1239" d="M72 492q0 119 46 209t120.5 149t171 90t198.5 31q115 0 215.5 -43t174 -119t115.5 -181.5t42 -228.5q0 -174 -56.5 -301t-141.5 -213t-186 -133t-191 -61l-74 159q70 0 147.5 28t144 92.5t109.5 170t43 258.5q0 84 -24.5 156t-68.5 124t-107.5 82t-141.5 30 q-70 0 -130 -21.5t-104 -61.5t-69.5 -94.5t-25.5 -121.5q0 -55 15 -103.5t54 -85.5t105.5 -58.5t167.5 -21.5v-178q-147 0 -252 36t-171.5 97.5t-96 142t-29.5 171.5z" />
<glyph unicode="&#xe52;" horiz-adv-x="1423" d="M31 932v209q57 -6 113.5 -32t100.5 -68t70.5 -98t26.5 -124v-524q0 -51 28.5 -85t75.5 -34h576q45 0 73.5 34t28.5 85v412q0 51 -28.5 84.5t-73.5 33.5h-16l-72 -116h-123l-74 116h-14q-47 0 -76 -33.5t-29 -84.5v-43q0 -53 22 -87t57.5 -52.5t79.5 -21.5t89 3l76 -148 q-41 -16 -91 -28.5t-110 -12.5q-92 8 -163 48q-31 16 -61 41.5t-52.5 61.5t-36.5 84t-14 112v43q0 70 24.5 124t66.5 90.5t98 56t120 19.5h31l120 -170l117 170h31q63 0 119.5 -19.5t98.5 -56t66.5 -91t24.5 -123.5v-412q0 -72 -24.5 -126t-66.5 -91t-98.5 -56.5 t-119.5 -19.5h-576q-63 0 -119.5 19.5t-98.5 56.5t-66.5 91t-24.5 126v524q0 43 -32.5 74t-73.5 39z" />
<glyph unicode="&#xe53;" horiz-adv-x="1329" d="M74 485q0 135 47 231.5t114.5 157t142.5 89t130 28.5q61 0 106 -15t77 -41t51.5 -57.5t31.5 -64.5q27 -80 23 -178l102 356q147 0 232.5 -59.5t85.5 -200.5v-731h-207v748q0 39 -9.5 55t-42.5 16l-137 -444h-129q0 74 1 151.5t-14 142t-54 105.5t-117 41 q-25 0 -63.5 -14.5t-74.5 -51t-62.5 -101t-26.5 -163.5q0 -100 28.5 -161.5t68.5 -95t80 -46t62 -12.5h64v-174h-101q-57 6 -127.5 31.5t-133 82t-105.5 148.5t-43 227z" />
<glyph unicode="&#xe54;" horiz-adv-x="1331" d="M74 487q0 135 45 231.5t113.5 158t149.5 89t153 27.5h454q45 0 75 33t40 74h207q-6 -59 -32 -110.5t-68 -90.5t-98 -60.5t-124 -21.5h-454q-25 0 -68 -14.5t-85 -51t-71.5 -101.5t-29.5 -163q0 -100 28.5 -161.5t68.5 -95t80 -46t62 -12.5h12q43 0 66 21.5t34 48t14 48.5 l3 21q0 61 15.5 108.5t39 82.5t52 59.5t59.5 40.5q70 37 160 45h18v-186q-59 -10 -99 -46t-40 -112v-12q0 -51 28.5 -85t73.5 -34h76l31 -174h-107q-63 0 -103 10t-62 23q-27 14 -39 32q-25 -18 -56 -32q-29 -12 -66.5 -22.5t-84.5 -10.5h-62q-57 6 -127.5 31.5t-133 82 t-105.5 148.5t-43 227z" />
<glyph unicode="&#xe55;" horiz-adv-x="1314" d="M72 489q0 111 29.5 194t78.5 143.5t110.5 97.5t125.5 53q-23 45 -23 94q0 55 23.5 100.5t62.5 79t90.5 52t108.5 18.5t110.5 -17.5t94.5 -51t65.5 -85t24.5 -118.5v-54h14q45 0 75 33t38 74h209q-6 -59 -32 -110.5t-68 -90.5t-98 -60.5t-124 -21.5h-455q-25 0 -68.5 -14 t-84.5 -51t-72 -101.5t-31 -163.5q0 -100 30 -161.5t70 -95t80 -46t62 -12.5h8q49 0 74 21.5t35 48.5q10 31 10 69q2 61 16.5 108.5t37 82.5t52 59.5t60.5 40.5q70 37 162 45h18v-186q-59 -10 -99 -46t-40 -112v-12q0 -51 28.5 -85t73.5 -34h76l31 -174h-107q-63 0 -103 10 t-63 23q-27 14 -40 33q-25 -18 -56 -33q-27 -12 -64.5 -22.5t-84.5 -10.5h-62q-57 6 -127.5 31.5t-133 82t-105.5 148.5t-43 227zM600 1071q0 -10 3 -22.5t13.5 -23.5t30 -18.5t49.5 -7.5h74v74q0 41 -29.5 57.5t-62.5 16.5q-31 0 -54.5 -21.5t-23.5 -54.5z" />
<glyph unicode="&#xe56;" horiz-adv-x="1214" d="M27 1126h215l92 -252q49 37 108 66q49 25 115.5 45.5t142.5 20.5q100 0 182.5 -36t139.5 -100.5t88 -154.5t31 -201q0 -252 -125 -392t-363 -140q-123 0 -208 26.5t-138 71.5t-76.5 104.5t-23.5 124.5q0 88 37 142.5t91 85t116.5 41t115.5 10.5v-176q-43 4 -78 -4 q-29 -6 -52 -23.5t-23 -58.5q0 -31 9 -62t34.5 -55.5t73 -39.5t122.5 -15q72 0 125 26.5t88 74.5t52.5 113.5t17.5 145.5q0 59 -11.5 116.5t-38 102.5t-71.5 73t-115 28q-84 0 -146 -20.5t-105 -45.5q-51 -29 -89 -66h-165z" />
<glyph unicode="&#xe57;" horiz-adv-x="1611" d="M76 487q0 135 40 231.5t98 157t126 89t123 28.5q45 0 80 -11t59.5 -28.5t42 -40t27.5 -45.5q25 -53 28 -123l78 248q147 0 232.5 -83t85.5 -263q0 -66 -18.5 -146.5t-41.5 -152.5q-27 -82 -59 -168h33q47 0 79.5 7.5t55 24.5t36 44t23.5 66l99 501q33 152 99 236t183 84 v-172q-41 -8 -67.5 -55.5t-40.5 -92.5l-99 -501q-33 -154 -121 -238t-219 -84h-303q0 53 26.5 123t58.5 151.5t58.5 171t26.5 179.5q0 61 -5 100t-16.5 60.5t-27.5 28.5t-39 7l-102 -252h-174q16 47 22 92.5t-1 80t-30.5 56t-68.5 21.5q-25 0 -55.5 -14t-58 -52t-47 -102.5 t-19.5 -163.5q0 -100 19.5 -161.5t47 -95t58 -46t53.5 -12.5l63 6v-178h-100q-57 4 -118.5 29.5t-113 82t-84 148.5t-32.5 227z" />
<glyph unicode="&#xe58;" horiz-adv-x="1288" d="M113 293v393q0 63 23.5 119.5t66.5 98.5t101 66.5t130 24.5h502q45 0 74.5 33t40.5 74h206q-6 -59 -31.5 -110.5t-67.5 -90.5t-98 -60.5t-124 -21.5h-502q-25 0 -46 -12t-36.5 -31.5t-24 -43t-8.5 -46.5v-393q0 -51 28 -85t75 -34h76l88 117h123l90 -117h75q45 0 74 34 t29 85v43q0 53 -21.5 87t-56.5 52.5t-79 21.5t-89 -3l-78 147q41 16 92.5 27.5t110.5 11.5q92 -10 164 -47q31 -16 59.5 -42t52 -60.5t38 -83t14.5 -111.5v-43q0 -72 -24.5 -126t-66.5 -91t-98.5 -56.5t-120.5 -19.5h-106l-123 172l-117 -172h-106q-63 0 -119.5 19.5 t-98.5 56.5t-66.5 91t-24.5 126z" />
<glyph unicode="&#xe59;" horiz-adv-x="1527" d="M72 487q0 135 47 231.5t113.5 158t141.5 89t130 27.5q80 0 144.5 -46t115.5 -120q25 86 79 134.5t132 48.5q82 0 123 -47.5t57 -104.5q18 -68 14 -149l123 415h232l-273 -579h-188q8 80 0 143q-6 53 -27.5 98t-72.5 45q-23 0 -37.5 -16t-21.5 -43t-8 -61.5t1 -69.5 q6 -84 27 -190v2q20 -74 35.5 -145.5t24.5 -132t13 -105.5t4 -70h-196q0 72 -12.5 160t-34 179t-51 177t-63.5 153.5t-69.5 108.5t-70.5 41q-25 0 -63 -14t-74.5 -52t-63.5 -102.5t-27 -163.5q0 -98 29 -160.5t69 -96t81 -46t63 -12.5h64v-172h-101q-57 6 -128.5 31.5 t-134 82t-104.5 147.5t-42 226z" />
<glyph unicode="&#xe5a;" horiz-adv-x="1523" d="M76 1092h207q0 -164 37.5 -249t150.5 -85q82 0 136.5 44t88.5 97q39 61 62 141v50h203v-322q66 18 112.5 63.5t79.5 92.5q37 53 66 116v50h270v-170h-68v-920h-202v725l22 80q-37 -47 -80 -88q-37 -35 -89 -70t-111 -51v-596h-203v715l16 86q-35 -61 -86 -111 q-43 -41 -105.5 -75.5t-148.5 -34.5q-70 0 -134 26.5t-114.5 88t-80 158.5t-29.5 239z" />
<glyph unicode="&#xe5b;" horiz-adv-x="2990" d="M119 623q0 141 43 237t111.5 155.5t152.5 85t168 25.5q66 0 133.5 -15t127.5 -50t110.5 -90.5t78.5 -134.5h-227q-39 55 -97 83.5t-126 28.5q-117 0 -192.5 -82t-75.5 -243q0 -59 15 -121t54 -112t103.5 -82t163.5 -32q80 0 150.5 38t128.5 97.5t104.5 134.5t78 150.5 t49 142t17.5 111.5h4v4h213l231 -440l117 256h2h211h2l154 -227l663 -47l47 -136h-821l-131 211l-123 -276h-241l-191 387q-37 -94 -96.5 -196.5t-142 -186.5t-189 -139.5t-237.5 -55.5q-106 0 -205 35t-173.5 100.5t-119.5 163t-45 220.5z" />
<glyph unicode="&#x2000;" horiz-adv-x="1003" />
<glyph unicode="&#x2001;" horiz-adv-x="2007" />
<glyph unicode="&#x2002;" horiz-adv-x="1003" />
<glyph unicode="&#x2003;" horiz-adv-x="2007" />
<glyph unicode="&#x2004;" horiz-adv-x="669" />
<glyph unicode="&#x2005;" horiz-adv-x="501" />
<glyph unicode="&#x2006;" horiz-adv-x="334" />
<glyph unicode="&#x2007;" horiz-adv-x="334" />
<glyph unicode="&#x2008;" horiz-adv-x="250" />
<glyph unicode="&#x2009;" horiz-adv-x="401" />
<glyph unicode="&#x200a;" horiz-adv-x="111" />
<glyph unicode="&#x200c;" d="M-27 -197v1643h54v-1643h-54z" />
<glyph unicode="&#x200d;" d="M-158 1436l125 123l-125 118l37 35l121 -123l121 123l37 -35l-125 -118l125 -123l-37 -33l-94 96v-1696h-54v1696l-94 -96z" />
<glyph unicode="&#x200e;" d="M-27 -197v1770h242l-98 92l35 35l155 -154l-155 -153l-35 34l98 95h-188v-1719h-54z" />
<glyph unicode="&#x200f;" d="M-307 1561l155 153l33 -35l-96 -92h242v-1784h-54v1733h-188l96 -94l-33 -35z" />
<glyph unicode="&#x2010;" horiz-adv-x="749" d="M82 477v199h586v-199h-586z" />
<glyph unicode="&#x2011;" horiz-adv-x="749" d="M82 477v199h586v-199h-586z" />
<glyph unicode="&#x2012;" horiz-adv-x="749" d="M82 477v199h586v-199h-586z" />
<glyph unicode="&#x2018;" horiz-adv-x="684" d="M88 487q0 51 20.5 97.5t54.5 81t80 54t99 19.5q51 0 98 -19.5t81 -54t54.5 -81t20.5 -97.5q0 -53 -20.5 -99t-54.5 -81t-81 -54.5t-98 -19.5q-53 0 -99 19.5t-80 54.5t-54.5 81t-20.5 99z" />
<glyph unicode="&#x201a;" horiz-adv-x="538" d="M139 -135q25 25 43 49q16 23 25.5 49.5t3.5 54.5q0 4 -2 5q-53 37 -53 102q0 51 36 87t87 36q66 0 99.5 -51.5t33.5 -114.5q0 -88 -36 -143.5t-77 -88.5q-51 -37 -113 -57z" />
<glyph unicode="&#x202f;" horiz-adv-x="401" />
<glyph unicode="&#x2032;" horiz-adv-x="266" />
<glyph unicode="&#x2033;" horiz-adv-x="598" />
<glyph unicode="&#x2044;" horiz-adv-x="219" />
<glyph unicode="&#x205f;" horiz-adv-x="501" />
<glyph unicode="&#x20a3;" horiz-adv-x="858" />
<glyph unicode="&#x20ab;" horiz-adv-x="806" />
<glyph unicode="&#x20ac;" horiz-adv-x="1206" d="M4 432v123h152q-6 55 -6 119q0 35 2 68.5t6 64.5h-154v123h180q35 119 100.5 204t145.5 138t170 78.5t174 25.5q96 0 199.5 -33.5t191.5 -101.5l-90 -170q-37 39 -79 64.5t-83 41t-76.5 21.5t-62.5 6q-37 0 -88 -11t-104.5 -42t-103.5 -84t-83 -137h488v-123h-518 q-6 -31 -8.5 -63.5t-2.5 -69.5q0 -33 2 -61.5t6 -57.5h521v-123h-490q31 -86 82 -140t106.5 -84t108.5 -40t90 -10q27 0 64 6t78 20.5t84 40t79 66.5l91 -170q-90 -72 -193.5 -104.5t-202.5 -32.5q-86 0 -177 24.5t-173 77.5t-148.5 139t-101.5 207h-176z" />
<glyph unicode="&#x2113;" horiz-adv-x="585" />
<glyph unicode="&#x2126;" horiz-adv-x="1034" />
<glyph unicode="&#x212e;" horiz-adv-x="1210" d="M45 473q0 100 42 188.5t115.5 155t172 104t211.5 37.5t211 -37.5t171.5 -104t115.5 -155t42 -188.5v-14h-874q-8 0 -8 -4v-267q0 -10 4 -16t8 -14q63 -66 148 -105t184 -39q104 0 193 44t153 118h80q-74 -86 -186.5 -137t-241.5 -51q-113 0 -211.5 37.5t-172 104.5 t-115.5 155t-42 188zM244 494q0 -8 8 -9h670q6 0 6 9v266q0 20 -13 33q-66 63 -148.5 100t-178.5 37q-98 0 -182 -38t-150 -104q-4 -8 -8 -15t-4 -17v-262z" />
<glyph unicode="&#x2153;" horiz-adv-x="1904" d="M78 1206h188l2 -352h-188v-172h596v172h-203v524h-395v-172zM311 -8l922 1390h205l-922 -1390h-205zM1104 582h242v26q0 45 31.5 63.5t103.5 18.5q84 0 124 -24.5t40 -85.5q0 -10 -5.5 -24.5t-18.5 -27t-39 -20.5t-64 -8h-123v-170h123q47 0 72.5 -7.5t37.5 -19.5 t14.5 -29.5t2.5 -37.5q0 -45 -37 -69t-103 -24q-29 0 -56.5 4.5t-51 12.5t-37.5 19t-14 26v37h-216q0 -82 24 -134.5t72 -83t117.5 -43t161.5 -12.5q160 0 248 68.5t88 193.5q0 57 -22.5 94t-51.5 60q-32 25 -71 37q39 4 71 22q29 16 51.5 47t22.5 89q0 80 -28.5 134 t-77.5 88t-115 48t-139 14q-51 0 -93 -6t-79 -22.5t-70 -46t-68 -74.5h-67v-133z" />
<glyph unicode="&#x2154;" horiz-adv-x="1941" d="M74 1032v172h45q51 117 138 173.5t189 56.5q27 0 74 -13.5t92 -47.5t79 -91t34 -145q0 -78 -48 -144.5t-106 -113.5q-68 -55 -151 -103h319v-207h-616v144q117 82 209 161q39 33 76.5 69t67.5 71t48.5 66.5t18.5 56.5q0 47 -24.5 85t-72.5 38q-70 0 -107.5 -38 t-45.5 -124v-66h-219zM410 0l921 1391h205l-922 -1391h-204zM1130 565v133h68q35 45 67.5 75t69.5 46.5t79 22.5t93 6q74 0 139.5 -14.5t114.5 -48t78 -88t29 -134.5q0 -57 -22.5 -88t-51.5 -47q-33 -18 -72 -22q39 -12 72 -37q29 -23 51.5 -60t22.5 -94q0 -125 -88 -193.5 t-248 -68.5q-92 0 -162 12t-118 43t-71.5 83t-23.5 134h215v-37q0 -14 14.5 -25t38 -19.5t51 -12.5t56.5 -4q66 0 102.5 23.5t36.5 68.5q0 20 -2 37.5t-14.5 30t-38 19.5t-72.5 7h-123v170h123q39 0 64.5 8.5t39 20.5t18.5 26.5t5 24.5q0 61 -40 86t-124 25 q-72 0 -103.5 -18.5t-31.5 -63.5v-27h-242z" />
<glyph unicode="&#x2155;" horiz-adv-x="1800" d="M115 688h596v172h-203v524h-393v-170h188v-354h-188v-172zM346 -2l922 1391h205l-922 -1391h-205zM1032 256l203 -51q6 14 25 24q14 10 39.5 18.5t66.5 8.5q55 0 93 -25.5t38 -85.5q0 -37 -30.5 -67.5t-106.5 -30.5q-61 0 -102 12.5t-66 28.5q-29 18 -45 43l-98 -129 q25 -37 67 -63q37 -25 96.5 -44.5t147.5 -19.5q170 0 249 74t79 196q0 70 -25 120t-66 83t-94 48.5t-112 15.5q-27 0 -53.5 -4.5t-49.5 -8.5q-27 -6 -51 -12l18 123h373v207h-547v-2z" />
<glyph unicode="&#x2156;" horiz-adv-x="1912" d="M98 1030v172h45q51 117 138.5 173.5t189.5 56.5q27 0 74 -13.5t92 -47.5t79 -91t34 -145q0 -78 -48.5 -144.5t-105.5 -113.5q-68 -55 -152 -103h320v-207h-617v144q117 82 209 161q39 33 77 69t67.5 71t48 66.5t18.5 56.5q0 47 -24.5 84.5t-71.5 37.5q-70 0 -107.5 -37.5 t-46.5 -123.5v-66h-219zM434 -2l922 1391h205l-922 -1391h-205zM1174 297l49 459v2h546v-207h-372l-19 -123q25 6 52 12q23 4 49 8.5t53 4.5q59 0 112.5 -15.5t94.5 -48.5t65.5 -83t24.5 -120q0 -123 -79 -196.5t-249 -73.5q-88 0 -147.5 19.5t-96.5 44.5q-43 27 -67 63 l98 129q16 -25 45 -43q25 -16 66 -28.5t102 -12.5q76 0 106.5 31t30.5 67q0 59 -37.5 85t-93.5 26q-41 0 -66.5 -8t-39.5 -19q-18 -10 -25 -24z" />
<glyph unicode="&#x2157;" horiz-adv-x="1937" d="M90 1182v133h68q35 45 67.5 74.5t69.5 46t79 22.5t93 6q74 0 139.5 -14t114.5 -48t77.5 -88t28.5 -134q0 -57 -22.5 -88t-50.5 -48q-33 -18 -72 -22q39 -12 72 -37q29 -23 51 -59.5t22 -94.5q0 -125 -88 -193.5t-247 -68.5q-92 0 -162 12.5t-118 43t-71.5 83t-23.5 134.5 h215v-37q0 -14 14 -25.5t38 -19.5t51.5 -12.5t56.5 -4.5q66 0 102.5 24t36.5 69q0 20 -2 37.5t-14.5 29.5t-38 19.5t-72.5 7.5h-123v170h123q39 0 64.5 8t39 20.5t18.5 26.5t5 25q0 61 -40 85.5t-124 24.5q-72 0 -103.5 -18.5t-31.5 -63.5v-26h-242zM459 2l921 1391h207 l-921 -1391h-207zM1186 301l49 459v2h547v-207h-373l-18 -123q25 6 51 12q23 4 49 8.5t53 4.5q59 0 112.5 -15.5t94.5 -48.5t65.5 -83t24.5 -120q0 -123 -79 -196.5t-249 -73.5q-88 0 -147 19.5t-96 44.5q-43 27 -68 63l98 129q16 -25 46 -43q25 -16 65.5 -28.5t101.5 -12.5 q76 0 107 31t31 67q0 59 -38 85t-93 26q-41 0 -67 -8t-40 -19q-18 -10 -24 -24z" />
<glyph unicode="&#x2158;" horiz-adv-x="1875" d="M111 756v194l376 445h220v-432h112v-207h-112v-144h-205v144h-391zM340 961l162 2v188zM395 2l922 1391h207l-922 -1391h-207zM1122 301l49 459v2h547v-207h-372l-19 -123q25 6 51 12q23 4 49.5 8.5t53.5 4.5q59 0 112.5 -15.5t94.5 -48.5t65.5 -83t24.5 -120 q0 -123 -79 -196.5t-249 -73.5q-88 0 -147.5 19.5t-96.5 44.5q-43 27 -67 63l98 129q16 -25 45 -43q25 -16 66 -28.5t102 -12.5q76 0 106.5 31t30.5 67q0 59 -38 85t-93 26q-41 0 -66.5 -8t-39.5 -19q-18 -10 -25 -24z" />
<glyph unicode="&#x2159;" horiz-adv-x="1763" d="M127 690h596v172h-203v524h-393v-169h188v-355h-188v-172zM367 0l921 1391h207l-922 -1391h-206zM1034 358q0 -199 86 -309t232 -110q57 0 109 21.5t91 58t62.5 87t23.5 109.5q0 70 -22.5 124t-58 90t-82 54.5t-91.5 18.5t-75.5 -11.5t-53.5 -23.5q-25 -14 -43 -33 q0 63 19.5 101t49.5 58.5t62.5 28t61.5 7.5q16 0 33.5 -2t34.5 -6q18 -4 36 -7l47 144q-14 10 -34 18q-16 6 -40 12.5t-55 6.5q-76 0 -146.5 -22.5t-125.5 -75t-88 -135.5t-33 -204zM1221 250q0 10 8 27.5t25.5 35t45 30.5t64.5 13t60.5 -15t39 -36.5t21.5 -45t6 -42.5 q0 -61 -41 -98t-88 -37q-53 0 -97 45t-44 123z" />
<glyph unicode="&#x215a;" horiz-adv-x="1726" d="M119 958l49 459v2h547v-207h-373l-18 -122q25 6 51 12q23 4 49 8t53 4q59 0 112.5 -15.5t94.5 -48t65.5 -82.5t24.5 -120q0 -123 -79 -196.5t-249 -73.5q-88 0 -147 19t-96 44q-43 27 -68 64l98 129q16 -25 46 -43q25 -16 65.5 -28.5t101.5 -12.5q76 0 107 30.5t31 67.5 q0 59 -38 84.5t-93 25.5q-41 0 -67 -8t-40 -18q-18 -10 -24 -25zM352 -4l922 1390h207l-922 -1390h-207zM1020 354q0 121 32.5 204t88 135t126 75t146.5 23q31 0 54.5 -6.5t39.5 -12.5q20 -8 35 -18l-47 -144q-18 2 -37 6q-16 4 -33.5 6.5t-33.5 2.5q-29 0 -62 -7.5 t-62.5 -28t-49 -58t-19.5 -101.5q18 18 43 33q23 12 53.5 23.5t75.5 11.5t91 -18.5t82 -54.5t58.5 -90t22.5 -124q0 -59 -23.5 -109.5t-62.5 -87.5t-91 -58.5t-110 -21.5q-145 0 -231 111t-86 309zM1206 246q0 -78 44.5 -123t99.5 -45q47 0 87 37t40 98q0 18 -6.5 42 t-21.5 45.5t-39 36.5t-60 15q-37 0 -65 -13t-45 -30.5t-25.5 -35t-8.5 -27.5z" />
<glyph unicode="&#x215b;" horiz-adv-x="1785" d="M104 686h596v172h-202v524h-394v-170h189v-354h-189v-172zM344 -4l922 1390h207l-922 -1390h-207zM1047 197q0 -61 23.5 -111.5t66.5 -86.5t101 -55.5t128 -19.5t128 19.5t101 55.5t67 86t24 112q0 72 -35 125t-92 86q45 27 75.5 67.5t30.5 97.5t-27.5 101.5t-70.5 74 t-96.5 45t-104.5 15.5t-104.5 -15.5t-96.5 -45t-70.5 -73.5t-27.5 -102q0 -57 29.5 -98t72.5 -67q-57 -33 -89.5 -86.5t-32.5 -124.5zM1233 197q0 66 42 90t89 24q23 0 47.5 -6t44 -19.5t31.5 -35t12 -53.5q0 -31 -12 -53.5t-32.5 -36t-44.5 -19.5t-44 -6q-23 0 -45.5 6 t-43 19.5t-32.5 35t-12 54.5zM1247 573q0 27 12.5 43.5t31 25.5t39 13t36.5 4t36.5 -3t39 -12t31 -26.5t12.5 -44.5t-14.5 -44t-34 -26t-40 -12.5t-32.5 -3.5q-14 0 -33.5 3.5t-38 12.5t-32 26.5t-13.5 43.5z" />
<glyph unicode="&#x215c;" horiz-adv-x="1794" d="M68 1161v133h67q35 45 68 75t69.5 46.5t78.5 22.5t93 6q74 0 139.5 -14.5t115 -48t78 -88t28.5 -134.5q0 -57 -22.5 -88t-51.5 -47q-33 -19 -72 -23q39 -12 72 -36q29 -23 51.5 -60t22.5 -94q0 -125 -88 -193.5t-248 -68.5q-92 0 -161.5 12t-118 43t-72 83t-23.5 134h215 v-37q0 -14 14.5 -25t38 -19.5t51 -12.5t56.5 -4q66 0 102.5 23.5t36.5 68.5q0 20 -2 37.5t-14 30t-38 19.5t-73 7h-123v170h123q39 0 64.5 8.5t39 20.5t18.5 26.5t5 24.5q0 61 -40 86t-124 25q-72 0 -103.5 -18.5t-31.5 -63.5v-27h-241zM379 -2l921 1391h207l-921 -1391 h-207zM1077 199q0 72 33 125t90 86q-43 27 -72.5 67.5t-29.5 97.5t27.5 101.5t70.5 74t96.5 45t104.5 15.5t104 -15.5t96 -45t71 -73.5t28 -102q0 -57 -31 -97.5t-76 -67.5q57 -33 92 -86.5t35 -124.5q0 -61 -23.5 -111.5t-66.5 -86.5t-101.5 -55.5t-127.5 -19.5 q-70 0 -128.5 19.5t-101.5 55.5t-66.5 86t-23.5 112zM1264 199q0 -33 12 -54.5t32.5 -35t43 -19.5t45.5 -6q20 0 43.5 6t44 19.5t33 36t12.5 53.5q0 33 -12.5 54t-32 34.5t-44 19.5t-46.5 6q-47 0 -89 -24.5t-42 -89.5zM1278 575q0 -27 13.5 -44t31.5 -26t37.5 -12.5 t34.5 -3.5q12 0 32.5 3.5t40 12.5t34 26.5t14.5 43.5q0 27 -12.5 44.5t-31 26.5t-39 12.5t-36.5 3.5t-37 -4.5t-39 -13.5t-30.5 -25.5t-12.5 -43.5z" />
<glyph unicode="&#x215d;" horiz-adv-x="1716" d="M92 961l49 458v2h547v-207h-373l-18 -122q25 6 51 12q23 4 49.5 8t53.5 4q59 0 112 -15.5t94 -48t66 -82.5t25 -120q0 -123 -79 -196.5t-249 -73.5q-88 0 -147.5 19t-96.5 44q-43 27 -67 64l98 129q16 -25 45 -43q25 -16 65.5 -28.5t102.5 -12.5q76 0 106.5 30.5 t30.5 67.5q0 59 -38 85t-93 26q-41 0 -66.5 -8.5t-40.5 -18.5q-18 -10 -24 -25zM311 -2l922 1391h207l-922 -1391h-207zM1010 199q0 72 32.5 125t90.5 86q-43 27 -73 67.5t-30 97.5t27.5 101.5t70.5 74t96.5 45t104.5 15.5t104.5 -15.5t96.5 -45t70.5 -73.5t27.5 -102 q0 -57 -30.5 -97.5t-75.5 -67.5q57 -33 92 -86.5t35 -124.5q0 -61 -23.5 -111.5t-66.5 -86.5t-101.5 -55.5t-128.5 -19.5t-128 19.5t-101 55.5t-66.5 86t-23.5 112zM1196 199q0 -33 12.5 -54.5t33 -35t42.5 -19.5t45 -6q20 0 44 6t44.5 19.5t32.5 36t12 53.5q0 33 -12 54 t-31.5 34.5t-44 19.5t-47.5 6q-47 0 -89 -24.5t-42 -89.5zM1210 575q0 -27 13.5 -44t32 -26t38 -12.5t33.5 -3.5q12 0 32.5 3.5t40 12.5t34 26.5t14.5 43.5q0 27 -12.5 44.5t-31 26.5t-39 12.5t-36.5 3.5t-36.5 -4.5t-39 -13.5t-31 -25.5t-12.5 -43.5z" />
<glyph unicode="&#x215e;" horiz-adv-x="1681" d="M160 592l379 614h-303v205h557v-205l-379 -614h-254zM219 -8l922 1390h205l-922 -1390h-205zM918 193q0 72 32.5 125t87.5 85q-43 27 -71.5 68t-28.5 98t26.5 101.5t69.5 74t96.5 45t104.5 15.5t104.5 -15.5t96.5 -45t70.5 -73.5t27.5 -102q0 -57 -30 -98t-77 -68 q59 -33 93 -86t34 -124q0 -61 -23.5 -111.5t-66.5 -86.5t-101 -55.5t-128 -19.5q-141 0 -229 75t-88 198zM1104 193q0 -33 12 -54.5t31.5 -35t42 -19.5t45.5 -6t46.5 6t42.5 19.5t31.5 36t12.5 53.5q0 33 -12.5 54t-31.5 34.5t-43 19.5t-48 6q-47 0 -88 -24.5t-41 -89.5z M1118 569q0 -27 12.5 -44t31 -26.5t38 -12.5t33.5 -3t34.5 3t40 12.5t33 27t13.5 43.5q0 27 -12.5 44.5t-31 26.5t-39 12t-36.5 3t-36.5 -4t-38 -13t-30 -25.5t-12.5 -43.5z" />
<glyph unicode="&#x2202;" horiz-adv-x="825" />
<glyph unicode="&#x2206;" horiz-adv-x="825" />
<glyph unicode="&#x220f;" horiz-adv-x="825" />
<glyph unicode="&#x2211;" horiz-adv-x="825" />
<glyph unicode="&#x2212;" horiz-adv-x="1050" d="M113 573v205h815v-205h-815z" />
<glyph unicode="&#x221a;" horiz-adv-x="1013" d="M53 541l285 108l186 -563l203 1298h172l-11 -68q-11 -69 -28.5 -181.5t-40 -256t-45.5 -292.5q-53 -352 -121 -797h-188l-250 668l-96 -39z" />
<glyph unicode="&#x221e;" horiz-adv-x="1015" />
<glyph unicode="&#x222b;" horiz-adv-x="825" />
<glyph unicode="&#x2248;" horiz-adv-x="825" />
<glyph unicode="&#x2260;" horiz-adv-x="1284" d="M80 -53l215 323h-170v205h305l191 287h-496v207l631 -2l245 370h205l-243 -370h161v-205h-299l-188 -287h487v-205h-624l-215 -323h-205z" />
<glyph unicode="&#x2264;" horiz-adv-x="1009" d="M111 4h815v205h-815v-205zM113 694v242l811 405v-213l-592 -313l592 -311v-213z" />
<glyph unicode="&#x2265;" horiz-adv-x="1013" d="M113 0h815v205h-815v-205zM113 289v213l592 313l-592 311v213l811 -403v-242z" />
<glyph unicode="&#x25ca;" horiz-adv-x="825" />
<glyph unicode="&#x25cc;" horiz-adv-x="1202" d="M80 582q0 23 16 38t39 15t38 -15.5t15 -37.5q0 -23 -15 -39.5t-38 -16.5t-39 16.5t-16 39.5zM140.5 807.5q-5.5 21.5 4.5 42.5q12 18 34 24t42 -6q18 -10 24.5 -31.5t-5.5 -41.5q-10 -20 -32 -25.5t-42 4.5q-20 12 -25.5 33.5zM153 358q5 23 25 33q18 10 41 5t33 -25 q10 -18 5 -41t-26 -33q-20 -10 -41.5 -5t-31.5 25q-10 18 -5 41zM311 1015.5q6 22.5 25 33.5q20 10 42 4.5t34 -25.5q10 -18 5 -40.5t-26 -33.5q-20 -10 -41.5 -5t-32.5 26q-12 18 -6 40.5zM331 159q-5 22 5 42q12 18 33.5 24t42.5 -4q18 -12 24 -33.5t-6 -42.5 q-10 -18 -31.5 -24t-42.5 6q-20 10 -25 32zM547 1071q0 23 16.5 39t38.5 16q23 0 38 -16t15 -39t-15 -38t-38 -15t-39 15.5t-16 37.5zM569 115q0 23 16.5 39t39.5 16t38 -16.5t15 -38.5q0 -23 -15.5 -39.5t-37.5 -16.5q-23 0 -39.5 16.5t-16.5 39.5zM789.5 998.5 q-5.5 21.5 5.5 41.5q12 20 33.5 25.5t41.5 -4.5q18 -12 24.5 -34t-5.5 -42q-10 -18 -31.5 -24.5t-42.5 6.5q-20 10 -25.5 31.5zM810 199.5q5 21.5 26 31.5q18 10 40.5 5t32.5 -25q10 -18 5 -41t-25 -33q-18 -10 -41 -4.5t-33 25.5t-5 41.5zM969 857q6 22 24 32q20 12 42 6 t34 -27q10 -18 5 -39.5t-25 -33.5q-20 -10 -42 -5t-32 25q-12 20 -6 42zM980.5 349q-5.5 22 4.5 42q12 20 33.5 25.5t42.5 -4.5q18 -12 24.5 -34t-6.5 -42q-10 -18 -31.5 -24.5t-41.5 5.5q-20 10 -25.5 32zM1036 604q0 23 16.5 39t39.5 16t38 -16t15 -39t-15 -38t-38 -15 t-39.5 15.5t-16.5 37.5z" />
<glyph unicode="&#x25fc;" horiz-adv-x="983" d="M0 0v983h983v-983h-983z" />
<glyph unicode="&#xf700;" horiz-adv-x="802" d="M33 831q0 76 35.5 128.5t90 85t121 48t128.5 15.5q63 0 120.5 -10.5t102.5 -22.5q53 -14 98 -31l-2 -137q-55 10 -109 19q-47 8 -102 14t-102 6q-41 0 -79 -7t-67.5 -22.5t-47 -37t-17.5 -48.5h121q111 0 191.5 -29.5t129.5 -78.5t66.5 -111.5t-0.5 -128.5l-99 -483h-280 l-94 311q-6 23 -22.5 39.5t-49.5 9.5l-47 172q53 16 101 23.5t88 0.5t70 -32.5t42 -74.5l24 -119l19 -172l14 145l29 201q2 14 1 45t-17.5 60.5t-55.5 52t-110 22.5h-246z" />
<glyph unicode="&#xf701;" d="M-1020 1425q31 45 80 72t115 27q63 0 139 -5.5t141 -9.5l156 -12v-166h-393q-16 0 -34 -5t-34 -11q-18 -8 -37 -17z" />
<glyph unicode="&#xf702;" d="M-1032 1374q31 45 80 70.5t114 25.5q37 0 82 -2t86 -6q47 -4 95 -8v107h172v-283h-392q-16 0 -33.5 -5t-33.5 -11q-18 -8 -37 -17z" />
<glyph unicode="&#xf703;" d="M-1028 1395q61 88 194 88l21 -4q10 -14 20 -25q8 -10 17.5 -17t17.5 -10q-23 16 -34 49t-11 62q0 84 62.5 137.5t158.5 53.5q33 0 68 -11.5t62.5 -37t45 -65.5t17.5 -97v-230h-402q-16 0 -33.5 -5t-33.5 -11q-18 -8 -37 -15zM-657 1542q0 -29 23.5 -53.5t70.5 -24.5h45 v64q0 31 -16.5 56.5t-47.5 25.5q-35 0 -55 -17.5t-20 -50.5z" />
<glyph unicode="&#xf704;" d="M-1018 1386q31 45 80 71t115 26l82 -4v155h133l14 -164l53 -4l19 168h141v-344h-397q-16 0 -34.5 -5t-35.5 -11q-20 -8 -37 -17z" />
<glyph unicode="&#xf705;" d="M-573 1266v315h172v-315h-172z" />
<glyph unicode="&#xf706;" d="M-1008 1485v153q20 2 43 4q18 2 37 3.5t35 1.5q53 0 86 -35t33 -82v-43q0 -20 15.5 -23.5t37.5 -3.5h340v-151q-55 -6 -115 -13q-51 -4 -112.5 -7t-118.5 -3q-61 0 -104 7t-70 26.5t-39 53.5t-12 85q0 16 -14.5 20.5t-41.5 6.5z" />
<glyph unicode="&#xf707;" d="M-1061 1407v156q0 35 32 69.5t91 34.5h68q25 0 44 -12.5t31 -28.5q14 -18 25 -41l45 82h66q41 0 65.5 -28.5t24.5 -65.5v-121h32q18 0 19 16v199h147v-242l-159 -133h-199v240q0 8 -4 16t-15 8h-18v-73h-82v51q0 20 -14 20h-15q-8 0 -17 -5t-9 -15v-66q6 -37 43 -36v-142 q-39 0 -76 4t-64.5 16.5t-44 35t-16.5 61.5z" />
<glyph unicode="&#xf708;" d="M-899 1382v191l170 -17l-16 115h200l-16 -115l170 17v-191l-170 17l16 -115h-200l16 115z" />
<glyph unicode="&#xf709;" d="M-825 1278v98q0 66 45 95.5t110 29.5h176h44.5t35.5 2t31 4v-104q-6 -10 -18 -19q-10 -8 -27.5 -15t-44.5 -11l-98 -15q-31 -4 -50.5 -14t-19.5 -39v-37z" />
<glyph unicode="&#xf70a;" d="M-307 1315v295h172v-295h-172z" />
<glyph unicode="&#xf70b;" d="M-748 1497v152q16 0 35 2q16 0 32.5 1t33.5 1q53 0 85 -38t32 -97v-45q0 -20 9 -26.5t32 -6.5h385v-152l-148 -12q-63 -4 -134 -7t-128 -3q-61 0 -99 12t-58.5 37.5t-28 63.5t-7.5 89q0 29 -41 29z" />
<glyph unicode="&#xf70c;" d="M-938 1464q0 88 58.5 128t134.5 40q59 0 89.5 -12t45.5 -29q16 -18 18 -41l47 84q123 0 165 -20.5t42 -73.5v-123h14q25 0 36.5 7.5t11.5 33.5v176h174v-198q0 -82 -49.5 -114t-141.5 -32h-196v207q0 16 -5.5 20.5t-15.5 4.5l-59 -97h-99q0 49 -7 72t-42 23 q-59 0 -59 -56q0 -55 51 -55v-133q-51 0 -90 7t-66.5 28.5t-42 57.5t-14.5 95z" />
<glyph unicode="&#xf70d;" d="M-545 1382v191l170 -17l-16 115h201l-17 -115l170 17v-191l-170 17l17 -115h-201l16 115z" />
<glyph unicode="&#xf70e;" d="M-532 1278v98q0 66 45 95.5t110 29.5h176h44.5t35.5 2t31 4v-104q-6 -10 -19 -19q-10 -8 -27.5 -15t-43.5 -11l-99 -15q-31 -4 -50 -14t-19 -39v-37z" />
<glyph unicode="&#xf70f;" horiz-adv-x="1447" d="M70 961l67 124h377q55 0 111.5 -14t103.5 -48t77 -90t30 -138v-531q0 -18 13 -36.5t34.5 -32t48 -21.5t53.5 -8t52.5 8t46 21.5t33.5 32t13 36.5v823h271v-172h-66v-665q-2 -70 -36.5 -119t-87 -81t-114 -46t-112.5 -14q-53 0 -113.5 14t-113.5 46t-89 81t-38 119v545 q0 51 -35 84.5t-82 33.5h-227q4 -16 10 -34q4 -16 7 -38t3 -46v-564q2 -20 12.5 -36.5t55.5 -20.5v-178q-25 -4 -47 -6q-20 -4 -42 -5t-38 -1q-59 0 -102.5 45t-43.5 110v717q-2 23 -6 43q-6 39 -26 62z" />
<glyph unicode="&#xf710;" d="M-975 1491l166 35q0 -35 26.5 -67t73.5 -32h310v-151q-57 -6 -117 -12q-51 -4 -113.5 -8.5t-120.5 -4.5q-106 0 -165.5 67.5t-59.5 172.5z" />
<glyph unicode="&#xf711;" d="M-874 1401q0 47 19 79.5t52 54t77 31t95 9.5q102 0 173 -41t71 -133q0 -53 -19.5 -86t-52.5 -52.5t-77 -26.5t-95 -7t-95 7t-77 26.5t-52 52.5t-19 86zM-711 1401q0 -41 23.5 -55.5t56.5 -14.5t55.5 14.5t22.5 55.5t-22.5 56.5t-55.5 15.5t-56.5 -15.5t-23.5 -56.5z" />
<glyph unicode="&#xf712;" d="M-987 1366v150q0 82 54 130t147 48h460v-160h-442q-27 0 -35 -6t-8 -33v-88l80 82h153q0 -33 14.5 -40t49.5 -7h98v-170h-18.5h-37h-36.5h-18q-59 0 -87 21.5t-38 49.5q-10 33 -6 74l-119 -145h-115q-59 0 -77.5 29.5t-18.5 64.5z" />
<glyph unicode="&#xf713;" d="M-541 1620v233h172v-233h-172z" />
<glyph unicode="&#xf714;" d="M-778 1821v137q16 2 35 4q16 2 32.5 3t32.5 1q53 0 85 -28.5t32 -90.5v-26q0 -20 15.5 -25.5t37.5 -5.5h428v-135q-82 -6 -160 -13q-68 -4 -141.5 -7t-130.5 -3q-61 0 -104 6.5t-70 23.5t-39 49t-12 83q0 16 -7.5 20.5t-33.5 6.5z" />
<glyph unicode="&#xf715;" d="M-1010 1763q0 45 17.5 78t47.5 55.5t66.5 34t73.5 11.5q59 0 94 -12.5t56 -28.5q23 -18 32 -41l48 84q123 0 175 -20.5t52 -74.5v-141h14q25 0 36 7t11 34v184h174v-168q0 -82 -49 -125t-141 -43h-217v209q0 16 -5 20.5t-16 4.5l-59 -76h-113q0 49 -14 61.5t-49 12.5 q-29 0 -44.5 -18.5t-15.5 -47.5t13.5 -31.5t38.5 -2.5v-134q-51 0 -92.5 4.5t-71 21.5t-46 50t-16.5 92z" />
<glyph unicode="&#xf716;" d="M-791 1747v176l129 -16l-16 100h201l-17 -100l129 16v-176l-129 16l17 -100h-201l16 100z" />
<glyph unicode="&#xf717;" d="M-453 1679v99q0 66 45.5 95.5t110.5 29.5h176h44.5t35.5 2t31 4v-105q-6 -10 -19 -18q-10 -8 -27.5 -15.5t-43.5 -11.5l-99 -14q-31 -4 -50 -14.5t-19 -38.5v-37z" />
<glyph unicode="&#xf718;" d="M-375 -391q25 2 47 6q20 2 42 4t38 2q57 0 101.5 -45t44.5 -111v-233h-205v141q-2 23 -12.5 38.5t-55.5 19.5v178z" />
<glyph unicode="&#xf719;" d="M-713 -408q53 16 96.5 23.5t77 0.5t57 -32.5t36.5 -75.5l51 -170l78 269h215l-152 -361h-281l-59 125q-14 27 -26.5 41.5t-45.5 7.5z" />
<glyph unicode="&#xfb01;" horiz-adv-x="1163" d="M39 805v172h135v67q0 70 15.5 129.5t52.5 104.5t96 70.5t147 25.5q55 0 112.5 -11t111.5 -36l-60 -141q-23 10 -55.5 16t-75.5 6q-78 0 -107.5 -49t-29.5 -117v-65h608v-981h-205v809h-403v-809h-207v809h-135zM743 1249q0 51 36 87t87 36t87 -36t36 -87t-36 -87t-87 -36 t-87 36t-36 87z" />
<glyph unicode="&#xfb02;" horiz-adv-x="1146" d="M47 815v172h135v68q0 70 15.5 129t51.5 104t95 70.5t148 25.5h452v-1058q0 -63 25.5 -110.5t91.5 -55.5q2 0 5 -1t7 -1h8l-32 -164h-25.5t-24.5 2q-74 8 -124 35.5t-79.5 70.5t-43 99.5t-13.5 122.5v880q-10 2 -32.5 5t-49 6.5t-53 6.5t-45.5 3q-53 0 -86 -14.5 t-52.5 -38t-26.5 -55.5t-7 -64v-66h250v-172h-250v-807h-205v807h-135z" />
<glyph horiz-adv-x="649" d="M-901 1395q0 94 71 139t173 45t172.5 -46t70.5 -138q0 -53 -19.5 -88t-52 -55.5t-76.5 -30t-95 -9.5t-95.5 9.5t-77 30t-52 55t-19.5 88.5zM-737 1395q0 -41 23.5 -60.5t56.5 -19.5t55 19.5t22 60.5t-22.5 61.5t-54.5 20.5q-33 0 -56.5 -20.5t-23.5 -61.5zM-35 1067 q20 8 51 16.5t65 13.5t68.5 8t63.5 3q92 -8 164 -47q31 -16 59.5 -42t52 -61.5t38 -84t14.5 -109.5v-764h-205v764q0 109 -82 150.5t-227 7.5z" />
<glyph d="M-750 1526v53q0 43 12.5 82t40 69.5t70.5 48t107 17.5h59l76 -88q0 51 8 98t33 84t68 58.5t112 25.5v-155q-33 0 -52.5 -26t-28.5 -63.5t-12 -82.5t-3 -86h-141l-60 61h-65q-10 0 -22.5 -6t-12.5 -41v-49q0 -49 40 -59.5t97 -4.5v-170h-57q-12 0 -55.5 3t-90.5 24.5 t-85 69t-38 137.5z" />
<glyph d="M-393 -518q0 53 35.5 90t89.5 37q53 0 90 -37t37 -90t-37 -90t-90 -37t-89 37t-36 90z" />
<glyph horiz-adv-x="1042" d="M35 0v176q45 4 55 20.5t12 39.5v626q-2 20 -6 41q-4 16 -9 33.5t-15 28.5l65 127h471q68 -2 126.5 -20.5t101.5 -55.5t67.5 -90.5t26.5 -124.5v-842q0 -59 -21.5 -105.5t-54.5 -78t-68.5 -48t-62.5 -16.5h-141l-93 39h-454v172h481l105 -45q29 0 51 8q18 8 34.5 23.5 t16.5 50.5v842q0 51 -35 85t-80 34h-321q4 -16 10 -35q4 -16 7 -38t3 -46v-658q0 -66 -44 -110.5t-101 -44.5q-16 0 -38 1t-42 5q-23 2 -47 6z" />
<glyph horiz-adv-x="1042" d="M35 0v178q45 4 56 19.5t11 38.5v626l-1 12q-1 13 -4 30.5t-9 34.5t-16 28l67 125h469q55 0 111.5 -14.5t103.5 -48.5t77 -90t30 -138v-838q0 -59 -21.5 -105t-53.5 -78t-67.5 -48.5t-62.5 -16.5h-143l-93 99h-16l-104 -99h-334v172h307l90 99h86l105 -105q29 0 51 8 q18 8 34.5 23.5t16.5 50.5v838q0 51 -35 85t-82 34h-319q4 -16 10 -35q4 -16 7 -38t3 -46v-658q0 -66 -44 -110.5t-103 -44.5q-16 0 -38 1t-42 5q-23 2 -47 6z" />
<glyph horiz-adv-x="1200" d="M35 918v176q25 2 47 6q20 4 41.5 6t38.5 2q59 0 103 -45t44 -111v-559l205 465h148l221 -465v381q0 53 -35 87t-80 34h-39v2v170h39q45 0 80 34t35 87v14h204v-14q0 -70 -22.5 -121t-56.5 -86q35 -33 56 -82t23 -115v-784h-204l-295 668l-279 -668h-207v860 q0 20 -11 36.5t-56 21.5z" />
<glyph horiz-adv-x="1675" d="M72 967l65 125h471q59 0 121 -17.5t109 -58.5q12 8 38.5 24.5t69.5 33t103.5 27.5t138.5 11q104 -8 186 -47q35 -16 69 -42t60.5 -61.5t43 -84t16.5 -109.5v-1114h-205v1114q0 33 -14.5 63.5t-39 55t-57.5 39t-71 14.5q-104 0 -167 -19.5t-91 -35.5q4 -20 8 -41t4 -43 l-2 -977h67v-170h-272v1147q0 51 -35 85t-80 34h-321q4 -16 10 -35q4 -16 7 -38t3 -46v-563q2 -20 12.5 -37t55.5 -21v-178q-25 -4 -47 -6q-41 -6 -80 -6q-57 0 -101.5 45t-44.5 110v717q-2 23 -6 43q-4 16 -9 33.5t-15 28.5z" />
<glyph horiz-adv-x="1675" d="M35 0v178q45 4 55 20.5t12 37.5v624q-2 23 -6 43q-4 16 -9 33.5t-15 28.5l65 125h471q59 0 121 -17.5t109 -58.5q12 8 38.5 24.5t69.5 32.5t103.5 27.5t138.5 11.5q104 -8 186 -47q35 -16 69 -42t60.5 -61.5t43 -84t16.5 -109.5v-1114h-205v1114q0 33 -14.5 63.5t-39 55 t-57.5 39t-71 14.5q-104 0 -167 -19.5t-91 -35.5q8 -39 12 -84l-2 -977h67v-170h-272v1147q0 51 -35 85t-80 34h-321q4 -16 10 -35q4 -16 7 -38t3 -46v-656q0 -66 -44 -110.5t-101 -44.5q-16 0 -38 1t-42 5q-23 2 -47 6z" />
</font>
</defs>
</svg>
